<?xml version="1.0" encoding="utf-8"?>
<!-- Generator: Adobe Illustrator 27.5.0, SVG Export Plug-In . SVG Version: 6.00 Build 0)  -->
<svg version="1.1" xmlns="http://www.w3.org/2000/svg" xmlns:xlink="http://www.w3.org/1999/xlink" x="0px" y="0px"
	 viewBox="0 0 500 500" style="enable-background:new 0 0 500 500;" xml:space="preserve">
<g id="BACKGROUND">
	<path style="fill:#FFFFFF;" d="M-0.002,0v500h500V0H-0.002z M387.328,415.29c1.82-0.9,3.62-1.88,5.41-2.94
		c1.8-1.06,3.55-2.17,5.26-3.33c19.55,0.61,32.66,1.72,32.66,3C430.658,413.52,412.629,414.79,387.328,415.29z"/>
</g>
<g id="OBJECTS">
	<path style="fill:#EEF5FF;" d="M97.618,408.549h311.92c31.624-21.274,49.865-63.558,43.876-101.199s-35.224-70.575-71.89-80.984
		c0.222-23.973-3.263-48.796-13.353-70.544s-26.397-40.908-47.35-52.559c-20.953-11.652-46.625-15.337-69.481-8.101
		c-22.856,7.236-42.237,25.88-48.513,49.018c-23.747-6.026-49.831,1.434-67.611,18.289s-26.135,43.07-21.387,67.105
		c-17.258,1.691-32.892,8.562-45.283,20.692c-12.391,12.13-20.483,28.567-22.541,45.784c-2.512,21.015,3.812,42.327,13.975,60.892
		S83.863,392.463,97.618,408.549z"/>
	<g style="opacity:0.63;">
		<g>
			<g>
				<rect x="244.853" y="240.982" style="fill:#A9CBF7;" width="1.082" height="2.164"/>
			</g>
			<g>
				<path style="fill:#A9CBF7;" d="M245.935,236.403h-1.082v-4.58h1.082V236.403z M245.935,227.243h-1.082v-4.58h1.082V227.243z
					 M245.935,218.084h-1.082v-4.58h1.082V218.084z M245.935,208.925h-1.082v-4.58h1.082V208.925z M245.935,199.766h-1.082v-4.58
					h1.082V199.766z M245.935,190.606h-1.082v-4.58h1.082V190.606z"/>
			</g>
			<g>
				<polygon style="fill:#A9CBF7;" points="245.935,181.446 244.853,181.446 244.853,179.823 243.23,179.823 243.23,178.741 
					245.935,178.741 				"/>
			</g>
			<g>
				<path style="fill:#A9CBF7;" d="M239.232,179.823h-3.997v-1.082h3.997V179.823z M231.237,179.823h-3.997v-1.082h3.997V179.823z
					 M223.243,179.823h-3.997v-1.082h3.997V179.823z M215.248,179.823h-3.997v-1.082h3.997V179.823z M207.254,179.823h-3.997v-1.082
					h3.997V179.823z M199.259,179.823h-3.997v-1.082h3.997V179.823z"/>
			</g>
			<g>
				<polygon style="fill:#A9CBF7;" points="191.264,179.823 188.559,179.823 188.559,177.117 189.641,177.117 189.641,178.741 
					191.264,178.741 				"/>
			</g>
			<g>
				<path style="fill:#A9CBF7;" d="M189.641,173.095h-1.082v-4.022h1.082V173.095z M189.641,165.052h-1.082v-4.022h1.082V165.052z
					 M189.641,157.008h-1.082v-4.022h1.082V157.008z"/>
			</g>
			<g>
				<polygon style="fill:#A9CBF7;" points="189.641,148.964 188.559,148.964 188.559,147.341 186.936,147.341 186.936,146.259 
					189.641,146.259 				"/>
			</g>
			<g>
				<path style="fill:#A9CBF7;" d="M182.461,147.341h-4.475v-1.082h4.475V147.341z M173.512,147.341h-4.474v-1.082h4.474V147.341z
					 M164.563,147.341h-4.475v-1.082h4.475V147.341z M155.614,147.341h-4.475v-1.082h4.475V147.341z M146.665,147.341h-4.474v-1.082
					h4.474V147.341z M137.716,147.341h-4.475v-1.082h4.475V147.341z M128.767,147.341h-4.475v-1.082h4.475V147.341z
					 M119.818,147.341h-4.474v-1.082h4.474V147.341z"/>
			</g>
			<g>
				<polygon style="fill:#A9CBF7;" points="109.246,148.964 108.164,148.964 108.164,146.259 110.869,146.259 110.869,147.341 
					109.246,147.341 				"/>
			</g>
			<g>
				<path style="fill:#A9CBF7;" d="M109.246,188.807h-1.082v-3.984h1.082V188.807z M109.246,180.838h-1.082v-3.984h1.082V180.838z
					 M109.246,172.87h-1.082v-3.984h1.082V172.87z M109.246,164.901h-1.082v-3.984h1.082V164.901z M109.246,156.933h-1.082v-3.984
					h1.082V156.933z"/>
			</g>
			<g>
				<polygon style="fill:#A9CBF7;" points="110.869,195.497 108.164,195.497 108.164,192.791 109.246,192.791 109.246,194.414 
					110.869,194.414 				"/>
			</g>
			<g>
				<rect x="113.294" y="194.414" style="fill:#A9CBF7;" width="2.424" height="1.082"/>
			</g>
			<g>
				<polygon style="fill:#A9CBF7;" points="120.848,197.12 119.766,197.12 119.766,195.497 118.142,195.497 118.142,194.414 
					120.848,194.414 				"/>
			</g>
			<g>
				<polygon style="fill:#A9CBF7;" points="122.471,258.714 119.766,258.714 119.766,256.009 120.848,256.009 120.848,257.632 
					122.471,257.632 				"/>
			</g>
			<g>
				<path style="fill:#A9CBF7;" d="M150.096,258.714h-4.604v-1.082h4.604V258.714z M140.888,258.714h-4.604v-1.082h4.604V258.714z
					 M131.679,258.714h-4.604v-1.082h4.604V258.714z"/>
			</g>
			<g>
				<rect x="154.701" y="257.632" style="fill:#A9CBF7;" width="2.164" height="1.082"/>
			</g>
		</g>
		<g>
			<g>
				<rect x="278.381" y="160.694" style="fill:#A9CBF7;" width="2.164" height="1.082"/>
			</g>
			<g>
				<path style="fill:#A9CBF7;" d="M274.029,161.776h-4.353v-1.082h4.353V161.776z M265.323,161.776h-4.353v-1.082h4.353V161.776z
					 M256.616,161.776h-4.353v-1.082h4.353V161.776z M247.91,161.776h-4.352v-1.082h4.352V161.776z M239.205,161.776h-4.353v-1.082
					h4.353V161.776z"/>
			</g>
			<g>
				<polygon style="fill:#A9CBF7;" points="228.875,163.4 227.793,163.4 227.793,160.694 230.498,160.694 230.498,161.776 
					228.875,161.776 				"/>
			</g>
			<g>
				<path style="fill:#A9CBF7;" d="M228.875,243.743h-1.082v-4.463h1.082V243.743z M228.875,234.816h-1.082v-4.463h1.082V234.816z
					 M228.875,225.889h-1.082v-4.463h1.082V225.889z M228.875,216.962h-1.082v-4.463h1.082V216.962z M228.875,208.035h-1.082v-4.463
					h1.082V208.035z M228.875,199.108h-1.082v-4.463h1.082V199.108z M228.875,190.181h-1.082v-4.464h1.082V190.181z
					 M228.875,181.254h-1.082v-4.463h1.082V181.254z M228.875,172.327h-1.082v-4.463h1.082V172.327z"/>
			</g>
			<g>
				<rect x="227.793" y="248.205" style="fill:#A9CBF7;" width="1.082" height="2.164"/>
			</g>
		</g>
		<g>
			<g>
				<rect x="308.425" y="221.69" style="fill:#A9CBF7;" width="1.082" height="2.164"/>
			</g>
			<g>
				<path style="fill:#A9CBF7;" d="M309.507,217.647h-1.082v-4.043h1.082V217.647z M309.507,209.56h-1.082v-4.043h1.082V209.56z
					 M309.507,201.473h-1.082v-4.043h1.082V201.473z M309.507,193.387h-1.082v-4.043h1.082V193.387z"/>
			</g>
			<g>
				<polygon style="fill:#A9CBF7;" points="309.507,185.3 308.425,185.3 308.425,182.595 311.131,182.595 311.131,183.677 
					309.507,183.677 				"/>
			</g>
			<g>
				<rect x="313.616" y="182.595" style="fill:#A9CBF7;" width="2.486" height="1.082"/>
			</g>
			<g>
				<polygon style="fill:#A9CBF7;" points="321.294,183.677 318.589,183.677 318.589,182.595 320.212,182.595 320.212,180.972 
					321.294,180.972 				"/>
			</g>
			<g>
				<path style="fill:#A9CBF7;" d="M321.294,176.83h-1.082v-4.141h1.082V176.83z M321.294,168.547h-1.082v-4.142h1.082V168.547z"/>
			</g>
			<g>
				<polygon style="fill:#A9CBF7;" points="321.294,160.265 320.212,160.265 320.212,157.56 322.917,157.56 322.917,158.642 
					321.294,158.642 				"/>
			</g>
			<g>
				<path style="fill:#A9CBF7;" d="M345.966,158.642h-3.842v-1.082h3.842V158.642z M338.283,158.642h-3.842v-1.082h3.842V158.642z
					 M330.599,158.642h-3.842v-1.082h3.842V158.642z"/>
			</g>
			<g>
				<polygon style="fill:#A9CBF7;" points="352.513,160.265 351.43,160.265 351.43,158.642 349.807,158.642 349.807,157.56 
					352.513,157.56 				"/>
			</g>
			<g>
				<path style="fill:#A9CBF7;" d="M352.513,182.806h-1.082v-3.756h1.082V182.806z M352.513,175.292h-1.082v-3.757h1.082V175.292z
					 M352.513,167.779h-1.082v-3.756h1.082V167.779z"/>
			</g>
			<g>
				<polygon style="fill:#A9CBF7;" points="354.136,189.268 351.43,189.268 351.43,186.562 352.513,186.562 352.513,188.185 
					354.136,188.185 				"/>
			</g>
			<g>
				<path style="fill:#A9CBF7;" d="M380.026,189.268h-4.315v-1.082h4.315V189.268z M371.396,189.268h-4.315v-1.082h4.315V189.268z
					 M362.766,189.268h-4.315v-1.082h4.315V189.268z"/>
			</g>
			<g>
				<polygon style="fill:#A9CBF7;" points="387.045,190.891 385.963,190.891 385.963,189.268 384.34,189.268 384.34,188.185 
					387.045,188.185 				"/>
			</g>
			<g>
				<path style="fill:#A9CBF7;" d="M387.045,274.153h-1.082v-4.163h1.082V274.153z M387.045,265.827h-1.082v-4.163h1.082V265.827z
					 M387.045,257.501h-1.082v-4.163h1.082V257.501z M387.045,249.174h-1.082v-4.163h1.082V249.174z M387.045,240.848h-1.082v-4.163
					h1.082V240.848z M387.045,232.522h-1.082v-4.163h1.082V232.522z M387.045,224.196h-1.082v-4.163h1.082V224.196z
					 M387.045,215.869h-1.082v-4.163h1.082V215.869z M387.045,207.543h-1.082v-4.163h1.082V207.543z M387.045,199.217h-1.082v-4.163
					h1.082V199.217z"/>
			</g>
			<g>
				<polygon style="fill:#A9CBF7;" points="388.669,281.022 385.963,281.022 385.963,278.316 387.045,278.316 387.045,279.939 
					388.669,279.939 				"/>
			</g>
			<g>
				<rect x="392.933" y="279.939" style="fill:#A9CBF7;" width="4.263" height="1.082"/>
			</g>
			<g>
				<polygon style="fill:#A9CBF7;" points="404.165,282.645 403.083,282.645 403.083,281.022 401.459,281.022 401.459,279.939 
					404.165,279.939 				"/>
			</g>
			<g>
				<path style="fill:#A9CBF7;" d="M404.165,306.104h-1.082v-3.91h1.082V306.104z M404.165,298.285h-1.082v-3.91h1.082V298.285z
					 M404.165,290.465h-1.082v-3.91h1.082V290.465z"/>
			</g>
			<g>
				<polygon style="fill:#A9CBF7;" points="404.165,312.72 401.459,312.72 401.459,311.638 403.083,311.638 403.083,310.015 
					404.165,310.015 				"/>
			</g>
			<g>
				<path style="fill:#A9CBF7;" d="M397.141,312.72h-4.318v-1.082h4.318V312.72z M388.505,312.72h-4.317v-1.082h4.317V312.72z
					 M379.87,312.72h-4.318v-1.082h4.318V312.72z M371.233,312.72h-4.318v-1.082h4.318V312.72z M362.598,312.72h-4.318v-1.082h4.318
					V312.72z M353.962,312.72h-4.318v-1.082h4.318V312.72z"/>
			</g>
			<g>
				<polygon style="fill:#A9CBF7;" points="345.326,312.72 342.621,312.72 342.621,310.015 343.703,310.015 343.703,311.638 
					345.326,311.638 				"/>
			</g>
			<g>
				<path style="fill:#A9CBF7;" d="M343.703,305.466h-1.082v-4.549h1.082V305.466z M343.703,296.37h-1.082v-4.549h1.082V296.37z
					 M343.703,287.273h-1.082v-4.549h1.082V287.273z"/>
			</g>
			<g>
				<polygon style="fill:#A9CBF7;" points="343.703,278.177 342.621,278.177 342.621,276.553 340.997,276.553 340.997,275.471 
					343.703,275.471 				"/>
			</g>
			<g>
				<path style="fill:#A9CBF7;" d="M336.533,276.553h-4.464v-1.082h4.464V276.553z M327.605,276.553h-4.465v-1.082h4.465V276.553z
					 M318.676,276.553h-4.464v-1.082h4.464V276.553z M309.748,276.553h-4.465v-1.082h4.465V276.553z M300.819,276.553h-4.464v-1.082
					h4.464V276.553z"/>
			</g>
			<g>
				<rect x="289.726" y="275.471" style="fill:#A9CBF7;" width="2.164" height="1.082"/>
			</g>
		</g>
		<g>
			<g>
				<rect x="93.545" y="281.092" style="fill:#A9CBF7;" width="2.164" height="1.082"/>
			</g>
			<g>
				<path style="fill:#A9CBF7;" d="M79.582,282.174v-1.082h3.49v1.082H79.582z M86.562,282.174v-1.082h3.491v1.082H86.562z"/>
			</g>
			<g>
				<polygon style="fill:#A9CBF7;" points="73.387,282.174 73.387,279.469 74.469,279.469 74.469,281.092 76.092,281.092 
					76.092,282.174 				"/>
			</g>
			<g>
				<path style="fill:#A9CBF7;" d="M73.387,275.452v-4.017h1.082v4.017H73.387z M73.387,267.418v-4.017h1.082v4.017H73.387z"/>
			</g>
			<g>
				<polygon style="fill:#A9CBF7;" points="71.764,257.76 71.764,256.678 74.469,256.678 74.469,259.384 73.387,259.384 
					73.387,257.76 				"/>
			</g>
			<g>
				<rect x="61.804" y="256.678" style="fill:#A9CBF7;" width="4.98" height="1.082"/>
			</g>
			<g>
				<polygon style="fill:#A9CBF7;" points="54.119,257.76 54.119,255.055 55.201,255.055 55.201,256.678 56.824,256.678 
					56.824,257.76 				"/>
			</g>
			<g>
				<path style="fill:#A9CBF7;" d="M54.119,251.057v-3.997h1.082v3.997H54.119z M54.119,243.062v-3.997h1.082v3.997H54.119z
					 M54.119,235.067v-3.997h1.082v3.997H54.119z"/>
			</g>
			<g>
				<polygon style="fill:#A9CBF7;" points="54.119,227.071 54.119,224.366 56.824,224.366 56.824,225.448 55.201,225.448 
					55.201,227.071 				"/>
			</g>
			<g>
				<path style="fill:#A9CBF7;" d="M60.675,225.448v-1.082h3.851v1.082H60.675z M68.379,225.448v-1.082h3.851v1.082H68.379z
					 M76.081,225.448v-1.082h3.852v1.082H76.081z M83.784,225.448v-1.082h3.851v1.082H83.784z"/>
			</g>
			<g>
				<polygon style="fill:#A9CBF7;" points="91.486,225.448 91.486,224.366 93.109,224.366 93.109,222.742 94.191,222.742 
					94.191,225.448 				"/>
			</g>
			<g>
				<path style="fill:#A9CBF7;" d="M93.109,219.282v-3.461h1.082v3.461H93.109z M93.109,212.361V208.9h1.082v3.461H93.109z"/>
			</g>
			<g>
				<polygon style="fill:#A9CBF7;" points="93.109,205.439 93.109,202.734 95.815,202.734 95.815,203.816 94.191,203.816 
					94.191,205.439 				"/>
			</g>
			<g>
				<rect x="99.907" y="202.734" style="fill:#A9CBF7;" width="4.09" height="1.082"/>
				<rect x="108.088" y="202.734" style="fill:#A9CBF7;" width="4.09" height="1.082"/>
				<rect x="124.449" y="202.734" style="fill:#A9CBF7;" width="4.09" height="1.082"/>
				<rect x="116.269" y="202.734" style="fill:#A9CBF7;" width="4.09" height="1.082"/>
			</g>
			<g>
				<rect x="131.107" y="202.741" style="fill:#A9CBF7;" width="2.164" height="1.082"/>
			</g>
		</g>
	</g>
	<g>
		<g>
			<g>
				<path style="fill:#CFE5FF;" d="M101.249,267.568c2.174,3.08,6.433,3.814,9.512,1.64l2.056-1.452
					c2.206,1.802,4.642,3.241,7.22,4.294c0,0,0,0,0,0l-0.365,2.117c-0.64,3.715,1.852,7.246,5.567,7.886
					c3.715,0.64,7.246-1.852,7.886-5.567l0.428-2.485c2.76-0.272,5.507-0.959,8.14-2.067l1.24,1.757
					c2.174,3.08,6.433,3.814,9.512,1.64c3.08-2.174,3.814-6.433,1.64-9.512l-1.451-2.055c1.802-2.206,3.241-4.642,4.293-7.22
					c0,0,0.001-0.001,0.001-0.002l2.116,0.365c3.715,0.641,7.245-1.852,7.886-5.567c0.641-3.715-1.852-7.245-5.567-7.886
					l-2.485-0.428c-0.273-2.76-0.959-5.507-2.068-8.14l1.757-1.24c3.08-2.174,3.814-6.433,1.64-9.512
					c-2.174-3.08-6.433-3.814-9.512-1.64l-2.06,1.454c0,0-0.001-0.001-0.001-0.001c-2.2-1.806-4.633-3.24-7.216-4.289l0.366-2.123
					c0.641-3.715-1.852-7.245-5.567-7.886c-3.715-0.641-7.245,1.852-7.886,5.567l-0.429,2.486c-2.759,0.273-5.506,0.959-8.138,2.067
					l-1.241-1.758c-2.174-3.08-6.433-3.814-9.512-1.64c-3.08,2.174-3.814,6.433-1.64,9.512l1.455,2.061
					c-0.001,0.001-0.001,0.001-0.002,0.002c-1.805,2.2-3.24,4.632-4.289,7.215l-2.123-0.366c-3.715-0.64-7.245,1.852-7.886,5.567
					c-0.641,3.715,1.852,7.245,5.567,7.886l2.486,0.429c0.272,2.76,0.959,5.506,2.067,8.139l-1.758,1.241
					C99.809,260.23,99.075,264.488,101.249,267.568z M119.01,229.248c9.167-6.471,21.849-4.289,28.323,4.883
					c6.471,9.167,4.284,21.852-4.883,28.323c-9.167,6.471-21.852,4.284-28.323-4.883
					C107.652,248.399,109.843,235.719,119.01,229.248z"/>
			</g>
			<g>
				<path style="fill:#CFE5FF;" d="M141.224,238.444c4.091,5.795,2.709,13.81-3.086,17.901c-5.795,4.091-13.815,2.713-17.906-3.083
					c-4.091-5.795-2.708-13.819,3.088-17.91C129.115,231.262,137.133,232.649,141.224,238.444z"/>
			</g>
		</g>
		<g>
			<g>
				<path style="fill:#CFE5FF;" d="M157.036,211.831c0.621,1.717,2.517,2.606,4.234,1.985l1.147-0.415
					c0.8,1.124,1.753,2.109,2.823,2.931c0,0,0,0,0,0l-0.442,0.942c-0.775,1.653-0.063,3.622,1.59,4.397
					c1.653,0.775,3.622,0.063,4.397-1.59l0.518-1.106c1.324,0.226,2.696,0.258,4.068,0.077l0.354,0.979
					c0.621,1.717,2.517,2.606,4.234,1.985c1.717-0.621,2.606-2.517,1.985-4.234l-0.414-1.146c1.124-0.8,2.109-1.753,2.931-2.823
					c0,0,0,0,0.001-0.001l0.942,0.441c1.653,0.775,3.622,0.063,4.397-1.59c0.775-1.653,0.063-3.622-1.59-4.397l-1.106-0.518
					c0.226-1.324,0.257-2.696,0.077-4.068l0.98-0.354c1.717-0.621,2.606-2.517,1.985-4.234c-0.621-1.717-2.517-2.606-4.234-1.985
					l-1.149,0.415c0,0,0-0.001-0.001-0.001c-0.797-1.126-1.749-2.107-2.822-2.928l0.443-0.945c0.775-1.653,0.063-3.622-1.59-4.397
					c-1.653-0.775-3.622-0.063-4.397,1.59l-0.519,1.107c-1.324-0.226-2.695-0.257-4.067-0.077l-0.355-0.98
					c-0.621-1.717-2.517-2.606-4.234-1.985c-1.717,0.621-2.606,2.517-1.985,4.234l0.416,1.149c0,0-0.001,0-0.001,0.001
					c-1.125,0.796-2.107,1.749-2.928,2.821l-0.945-0.443c-1.653-0.775-3.622-0.063-4.397,1.59c-0.775,1.653-0.063,3.622,1.59,4.397
					l1.107,0.519c-0.226,1.324-0.257,2.695-0.077,4.067l-0.98,0.355C157.303,208.218,156.415,210.113,157.036,211.831z
					 M170.242,196.204c5.112-1.849,10.757,0.795,12.607,5.91c1.849,5.112-0.798,10.758-5.91,12.606
					c-5.112,1.849-10.758-0.798-12.606-5.91C162.483,203.696,165.131,198.053,170.242,196.204z"/>
			</g>
			<g>
				<path style="fill:#CFE5FF;" d="M179.442,203.346c1.169,3.232-0.503,6.799-3.735,7.968c-3.232,1.169-6.802-0.502-7.97-3.734
					c-1.169-3.232,0.505-6.803,3.737-7.972C174.705,198.439,178.273,200.114,179.442,203.346z"/>
			</g>
		</g>
		<g>
			<g>
				<path style="fill:#CFE5FF;" d="M324.798,236.777c1.561,2.211,4.619,2.738,6.83,1.178l1.477-1.042
					c1.584,1.294,3.333,2.327,5.184,3.083c0,0,0,0,0,0l-0.262,1.52c-0.46,2.667,1.33,5.203,3.997,5.662
					c2.667,0.46,5.203-1.33,5.662-3.997l0.308-1.784c1.982-0.196,3.954-0.689,5.845-1.484l0.89,1.261
					c1.561,2.211,4.619,2.739,6.83,1.178c2.211-1.561,2.738-4.619,1.177-6.83l-1.042-1.476c1.294-1.584,2.327-3.333,3.083-5.184
					c0,0,0-0.001,0.001-0.001l1.519,0.262c2.667,0.46,5.203-1.33,5.662-3.997c0.46-2.667-1.33-5.202-3.997-5.662l-1.784-0.308
					c-0.196-1.982-0.689-3.954-1.485-5.845l1.262-0.891c2.211-1.561,2.739-4.619,1.178-6.83c-1.561-2.211-4.619-2.739-6.83-1.177
					l-1.479,1.044c0,0-0.001-0.001-0.001-0.001c-1.58-1.297-3.327-2.327-5.182-3.08l0.263-1.524c0.46-2.667-1.33-5.203-3.997-5.662
					c-2.667-0.46-5.203,1.33-5.662,3.997l-0.308,1.785c-1.981,0.196-3.953,0.689-5.844,1.484l-0.891-1.262
					c-1.561-2.211-4.619-2.738-6.83-1.178c-2.211,1.561-2.738,4.619-1.178,6.83l1.045,1.48c-0.001,0-0.001,0.001-0.001,0.001
					c-1.296,1.58-2.326,3.326-3.079,5.181l-1.525-0.263c-2.667-0.46-5.203,1.33-5.662,3.997c-0.46,2.667,1.33,5.203,3.997,5.662
					l1.785,0.308c0.196,1.982,0.689,3.954,1.484,5.844l-1.262,0.891C323.764,231.508,323.237,234.565,324.798,236.777z
					 M337.551,209.262c6.582-4.646,15.688-3.08,20.337,3.506c4.646,6.582,3.076,15.691-3.506,20.337
					c-6.582,4.647-15.691,3.076-20.337-3.506C329.395,223.013,330.968,213.908,337.551,209.262z"/>
			</g>
			<g>
				<path style="fill:#CFE5FF;" d="M353.501,215.864c2.937,4.161,1.945,9.916-2.216,12.854c-4.161,2.938-9.92,1.948-12.857-2.213
					c-2.938-4.161-1.944-9.922,2.217-12.86C344.806,210.707,350.563,211.703,353.501,215.864z"/>
			</g>
		</g>
	</g>
	<g>
		<g>
			<g>
				<path style="fill:#092C24;" d="M383.705,293.794c-0.117,3.15-0.233,6.3-0.348,9.451c-0.079,2.11-0.157,4.221-0.234,6.331
					c0.023,0.182,0.049,0.357,0.074,0.528c-0.163,3.631-0.328,7.26-0.493,10.89c-0.034,0.758-0.07,1.52-0.105,2.279
					c-0.06,1.364-0.121,2.729-0.185,4.095c-0.017,0.402-0.037,0.803-0.054,1.205c-0.028,0.598-0.054,1.194-0.082,1.79
					c6.146,1.396,12.29,2.791,18.435,4.187c2.188-0.003,14.463-0.225,24.14-10.192c0.476-0.491,0.929-0.987,1.357-1.487
					c7.912-9.205,8.133-19.739,8.132-21.974c-1.786,1.898-6.577,6.477-14.281,8.108c-3.738,0.795-7.039,0.656-9.519,0.293
					c-0.942-0.138-1.761-0.308-2.443-0.471c-0.038-0.008-0.072-0.017-0.108-0.026c3.825-0.916,8.775-2.499,14.129-5.355
					c4.611-2.458,8.243-5.176,10.948-7.517c-0.094-2.059-0.287-5.182-0.709-8.967c-0.04-0.364-0.082-0.723-0.122-1.071
					c-0.036-0.296-0.072-0.588-0.107-0.871c-0.169-1.328-0.339-2.532-0.512-3.627c-0.057-0.366-0.113-0.72-0.171-1.064
					c-0.46-2.765-0.905-4.839-1.23-6.656c-0.038-0.213-0.074-0.42-0.109-0.628c-0.11-0.659-0.202-1.29-0.272-1.916
					c-0.514-4.67,0.028-11.467,5.02-20.427c0.202-0.359,0.41-0.726,0.628-1.096c-0.411,0.205-0.854,0.424-1.325,0.659
					c-0.003-0.001-0.004,0.002-0.004,0.002c-7.758,1.858-16.033,4.806-23.874,9.481c-0.025,0.015-0.05,0.03-0.076,0.046
					c-0.177,0.108-0.355,0.215-0.531,0.321c-0.025,0.015-0.05,0.03-0.076,0.046c-1.203,0.735-2.395,1.511-3.573,2.332
					c-0.215,0.15-0.43,0.302-0.643,0.453c-3.418,2.437-6.71,5.25-9.789,8.496c-0.824,0.869-1.613,1.75-2.371,2.637l0,0.001
					c-0.581,0.702-1.127,1.405-1.636,2.105c-0.2,0.273-0.395,0.545-0.583,0.815c-3.644,5.227-5.409,10.116-6.161,12.488
					C384.374,290.96,384,292.399,383.705,293.794z"/>
				<path style="fill:#245558;" d="M391.058,309.78c1.084,2.223,1.715,4.603,1.886,7.075c-1.125,1.199-2.28,2.403-3.464,3.612
					c-2.371,2.413-4.729,4.713-7.065,6.9c-0.017,0.402-0.037,0.803-0.054,1.205c4.5-4.166,9.072-8.685,13.649-13.583
					c1.7-1.818,3.343-3.628,4.934-5.428c1.559,0.184,3.132,0.257,4.696,0.22c1.639-0.04,3.284-0.201,4.903-0.483
					c-0.942-0.138-1.761-0.308-2.443-0.471c-0.823,0.085-1.651,0.136-2.479,0.157c-1.356,0.032-2.719-0.022-4.071-0.16
					c4.364-5.379,7.795-11.063,10.262-17.005c3.757-0.031,7.478-0.594,11.069-1.683c3.296-1,6.436-2.424,9.356-4.245
					c-0.036-0.296-0.072-0.588-0.107-0.871c-2.952,1.876-6.132,3.34-9.482,4.353c-0.109,0.034-0.221,0.065-0.331,0.098
					c2.126-1.278,4.113-2.773,5.929-4.465c1.205-1.123,2.333-2.33,3.371-3.613c-0.057-0.366-0.113-0.72-0.171-1.064
					c-1.137,1.465-2.393,2.834-3.745,4.095c-2.513,2.34-5.36,4.297-8.461,5.814c-2.334,0.479-4.712,0.741-7.103,0.78
					c0.999-2.502,1.823-4.978,2.689-7.588c0.616-1.864,1.241-3.744,1.94-5.658c1.749-0.302,3.496-0.689,5.205-1.153
					c2.808-0.762,5.577-1.754,8.244-2.946c-0.038-0.213-0.074-0.42-0.109-0.628c-2.681,1.209-5.469,2.21-8.298,2.979
					c-1.574,0.427-3.183,0.788-4.796,1.078c1.855-4.969,4.269-10.181,8.453-15.932c2.746-3.776,5.901-7.294,9.389-10.468
					c0.202-0.359,0.41-0.726,0.628-1.096c-0.411,0.205-0.854,0.424-1.325,0.659c-0.003-0.001-0.004,0.002-0.004,0.002
					c-3.462,3.169-6.598,6.674-9.332,10.433c-4.363,6-6.82,11.406-8.715,16.556c-0.056,0.01-0.113,0.019-0.17,0.028l0.049,0.304
					c-0.997-2.46-2.188-4.823-3.558-7.065l0.064,0.002c0.065-1.418,0.018-3.283-0.408-5.416c-0.447-2.235-1.166-4.048-1.804-5.362
					c-0.025,0.015-0.05,0.03-0.076,0.046c-0.177,0.108-0.355,0.215-0.531,0.321c-0.025,0.015-0.05,0.03-0.076,0.046
					c0.615,1.275,1.288,2.994,1.704,5.095c0.307,1.557,0.401,2.956,0.401,4.113c-0.526-0.83-1.125-1.698-1.803-2.584
					c-1.304-1.704-2.635-3.124-3.875-4.291c-0.215,0.15-0.43,0.302-0.643,0.453c1.263,1.221,2.584,2.652,3.88,4.317
					c3.215,4.129,5.137,8.222,6.315,11.465c-0.529,1.501-1.019,2.982-1.509,4.452c-0.923,2.79-1.797,5.427-2.891,8.092
					c-1.471,3.584-3.296,7.073-5.47,10.458c-0.556-5.296-2.229-10.457-4.876-14.997c-0.95-1.63-2.061-3.156-2.061-3.156
					c-0.85-1.177-1.894-2.468-3.163-3.79c-1.401-1.459-2.778-2.647-4.022-3.602c-0.021-0.016-0.041-0.031-0.061-0.046
					c-0.217,0.259-0.432,0.518-0.649,0.777c0.042,0.028,0.083,0.056,0.127,0.084c1.07,0.717,2.275,1.634,3.505,2.8
					c1.619,1.534,2.824,3.064,3.702,4.357c0,0,1.039,1.441,1.933,2.976c2.755,4.725,4.431,10.141,4.86,15.67
					c-1.34,2.01-2.806,3.982-4.395,5.912c-0.2,0.24-0.4,0.481-0.6,0.72c-1.933,2.297-4.041,4.536-6.321,6.717
					c-0.238-2.342-0.878-4.601-1.914-6.723c-0.396-0.813-0.801-1.501-1.159-2.055c-0.017-0.029-0.292-0.454-0.53-0.782
					c-1.081-1.496-2.514-2.525-2.776-2.71c-1.478-1.045-2.908-1.564-3.886-1.833c-0.021,0.398-0.044,0.797-0.064,1.196
					c1.238,0.389,4.393,1.521,6.18,3.951C389.918,307.714,390.518,308.673,391.058,309.78z"/>
			</g>
			<g>
				<g>
					<g>
						<g id="XMLID_3_">
							<path style="fill:#3D8E94;" d="M388.168,338.098c-2.92,4.815-5.84,9.63-8.76,14.445c4.439-2.808,8.877-5.616,13.316-8.424
								c8.996-6.056,38.033-28.622,50.509-49.393c3.572-5.946,8.111-16.775,3.467-23.487c-6.62-9.566-20.353,7.94-27.283,16.616
								c-0.579,0.725-1.111,1.388-1.587,1.968c-3.969,4.844-7.48,10.243-10.75,15.569c-4.639,7.551-10.593,17.726-15.479,26.469
								C390.377,334.051,389.22,336.152,388.168,338.098z"/>
						</g>
					</g>
					<path style="fill:#245558;" d="M379.334,352.802c-0.048-0.014-0.092-0.041-0.128-0.081c-0.099-0.112-0.088-0.282,0.023-0.381
						c15.624-13.828,29.775-29.294,42.06-45.967c6.103-8.282,11.837-16.993,17.043-25.89c0.075-0.129,0.241-0.172,0.369-0.097
						c0.129,0.075,0.172,0.241,0.097,0.369c-5.216,8.913-10.96,17.64-17.074,25.937c-12.308,16.704-26.484,32.198-42.137,46.052
						C379.515,352.808,379.419,352.827,379.334,352.802z"/>
				</g>
				<g>
					<g>
						<path style="fill:#317277;" d="M379.274,354.115c0.564-0.155,1.128-0.309,1.692-0.466c5.234-1.438,10.468-2.877,15.702-4.317
							c4.929-1.405,12.273-3.496,21.264-6.089c3.383-0.977,6.765-1.952,10.147-2.923c2.306-0.662,4.624-1.287,6.945-1.905
							c7.021-1.873,14.066-3.678,20.889-6.193c11.258-4.15,17.353-6.951,20.182-11.106c0.625-0.918,2.197-3.227,2.02-6.227
							c0,0-0.084-2.441-1.643-4.56c-7.228-9.82-35.396-0.142-44.84,5.305c-13.978,8.065-26.56,18.128-39.543,27.651
							C387.818,346.895,383.546,350.504,379.274,354.115z"/>
					</g>
					<path style="fill:#3D8E94;" d="M379.2,354.374c-0.062-0.018-0.119-0.058-0.155-0.118c-0.078-0.127-0.039-0.293,0.088-0.371
						c17.02-10.492,35.014-19.602,53.482-27.076c10.889-4.407,22.133-8.32,33.417-11.63c0.143-0.042,0.293,0.04,0.335,0.183
						c0.042,0.143-0.04,0.293-0.183,0.335c-11.268,3.305-22.494,7.211-33.367,11.612c-18.441,7.463-36.408,16.559-53.402,27.036
						C379.349,354.386,379.271,354.394,379.2,354.374z"/>
				</g>
				<g>
					<path style="fill:#317277;" d="M375.815,349.591c1.296-4.693,3.272-11.666,5.853-20.082
						c2.789-9.096,6.882-18.449,13.274-37.379c1.343-3.978,7.511-22.314,15.547-24.728c0.746-0.224,2.885-0.867,4.951,0.067
						c3.015,1.363,3.934,5.21,4.297,6.727c3.687,15.427-12.635,40.197-12.635,40.197c-4.35,7.196-10.388,15.624-18.691,24.024
						C384.1,342.778,379.829,346.473,375.815,349.591z"/>
					<path style="fill:#3D8E94;" d="M375.741,349.85c-0.024-0.007-0.047-0.017-0.07-0.031c-0.126-0.079-0.164-0.246-0.085-0.372
						c9.66-15.35,18.229-31.525,25.468-48.077c3.456-7.904,6.672-16.037,9.556-24.174c0.05-0.14,0.202-0.211,0.345-0.164
						c0.14,0.05,0.214,0.204,0.164,0.345c-2.889,8.149-6.109,16.294-9.57,24.21c-7.249,16.577-15.831,32.776-25.506,48.149
						C375.978,349.839,375.853,349.883,375.741,349.85z"/>
				</g>
				<g>
					<path id="XMLID_1_" style="fill:#3D8E94;" d="M403.58,358.467c0,0,13.663,0.224,19.98,0.209
						c14.109-0.034,30.185,0.922,39.346-7.968c2.109-2.046,4.052-4.857,3.66-8.235c-0.24-2.065-1.349-4.016-2.731-5.521
						c-4.685-5.103-16.398-3.986-22.364-3.362c-11.683,1.222-45.408,14.943-45.408,14.943c-6.015,2.903-12.031,5.807-18.046,8.71
						C386.537,357.651,395.059,358.059,403.58,358.467z"/>
					<path style="fill:#245558;" d="M377.942,357.502c-0.095-0.027-0.171-0.105-0.191-0.208c-0.028-0.146,0.067-0.288,0.214-0.316
						l78.048-15.088c0.146-0.028,0.288,0.067,0.316,0.214c0.028,0.146-0.067,0.288-0.214,0.316l-78.048,15.088
						C378.024,357.516,377.982,357.513,377.942,357.502z"/>
				</g>
			</g>
		</g>
		<g>
			<g>
				<g>
					<g>
						<g id="XMLID_00000041272724270300085190000017329800467797010069_">
							<path style="fill:#3D8E94;" d="M125.771,339.412c1.775,5.344,3.55,10.688,5.325,16.032
								c-3.702-3.726-7.404-7.451-11.107-11.177c-7.423-7.907-30.707-36.37-38.247-59.397c-2.158-6.592-4.173-18.159,1.848-23.67
								c8.583-7.853,18.075,12.271,22.9,22.272c0.403,0.836,0.774,1.601,1.109,2.272c2.791,5.606,5.012,11.651,7.015,17.571
								c2.842,8.395,6.381,19.639,9.199,29.251C124.518,334.975,125.178,337.28,125.771,339.412z"/>
						</g>
					</g>
					<path style="fill:#245558;" d="M131.111,355.714c0.05-0.003,0.099-0.019,0.142-0.05c0.121-0.087,0.149-0.255,0.062-0.377
						c-12.154-16.959-22.507-35.186-30.772-54.176c-4.106-9.433-7.757-19.201-10.852-29.034c-0.045-0.142-0.196-0.221-0.338-0.176
						c-0.142,0.045-0.221,0.196-0.176,0.338c3.101,9.851,6.759,19.637,10.872,29.087c8.281,19.025,18.653,37.286,30.828,54.276
						C130.932,355.679,131.022,355.718,131.111,355.714z"/>
				</g>
				<g>
					<g>
						<path style="fill:#317277;" d="M130.876,357.007c-0.515-0.276-1.031-0.553-1.546-0.831c-4.782-2.567-9.565-5.135-14.347-7.703
							c-4.493-2.467-11.187-6.14-19.375-10.67c-3.08-1.705-6.161-3.409-9.242-5.109c-2.101-1.159-4.222-2.284-6.347-3.403
							c-6.428-3.389-12.895-6.716-18.987-10.688c-10.052-6.552-15.371-10.639-17.203-15.32c-0.405-1.034-1.423-3.635-0.583-6.52
							c0,0,0.625-2.361,2.617-4.08c9.232-7.965,34.54,7.74,42.534,15.153c11.832,10.974,21.859,23.586,32.396,35.759
							C124.154,348.066,127.515,352.535,130.876,357.007z"/>
					</g>
					<path style="fill:#3D8E94;" d="M130.891,357.276c0.065-0.004,0.129-0.03,0.178-0.08c0.104-0.106,0.103-0.277-0.003-0.382
						c-14.257-14.018-29.772-26.904-46.113-38.302c-9.635-6.72-19.726-13.038-29.99-18.776c-0.13-0.073-0.294-0.026-0.367,0.104
						c-0.073,0.13-0.026,0.295,0.104,0.367c10.249,5.73,20.324,12.037,29.945,18.748c16.317,11.381,31.808,24.248,46.044,38.244
						C130.743,357.254,130.818,357.28,130.891,357.276z"/>
				</g>
				<g>
					<path id="XMLID_00000130640771510064124410000013576287447385214365_" style="fill:#3D8E94;" d="M106.212,355.839
						c0,0-13.37-2.823-19.525-4.244c-13.748-3.174-29.633-5.82-36.586-16.527c-1.6-2.464-2.87-5.637-1.735-8.843
						c0.694-1.96,2.209-3.615,3.892-4.775c5.703-3.932,16.874-0.236,22.552,1.7c11.118,3.792,40.942,24.675,40.942,24.675
						c5.218,4.17,10.436,8.339,15.655,12.509C123.008,358.837,114.61,357.338,106.212,355.839z"/>
					<path style="fill:#245558;" d="M131.421,360.605c0.098-0.005,0.19-0.064,0.233-0.16c0.06-0.136-0.002-0.296-0.138-0.356
						l-72.731-32.083c-0.136-0.06-0.296,0.002-0.356,0.138c-0.06,0.136,0.002,0.296,0.138,0.356l72.731,32.083
						C131.338,360.6,131.38,360.607,131.421,360.605z"/>
				</g>
			</g>
		</g>
	</g>
	<g>
		<path style="fill:#297EEC;" d="M169.607,341.195H66.824c-1.636,0-2.961-1.326-2.961-2.961v-10.745
			c0-1.636,1.326-2.961,2.961-2.961h102.783c1.636,0,2.961,1.326,2.961,2.961v10.745
			C172.569,339.869,171.243,341.195,169.607,341.195z"/>
		<rect x="68.392" y="341.195" style="fill:#4095F2;" width="99.647" height="16.668"/>
		<path style="fill:#297EEC;" d="M169.607,374.532H66.824c-1.636,0-2.961-1.326-2.961-2.961v-10.745
			c0-1.635,1.326-2.961,2.961-2.961h102.783c1.636,0,2.961,1.326,2.961,2.961v10.745
			C172.569,373.206,171.243,374.532,169.607,374.532z"/>
		<path style="fill:#297EEC;" d="M169.607,407.868H66.824c-1.636,0-2.961-1.326-2.961-2.961v-10.745
			c0-1.636,1.326-2.961,2.961-2.961h102.783c1.636,0,2.961,1.326,2.961,2.961v10.745
			C172.569,406.542,171.243,407.868,169.607,407.868z"/>
		<rect x="68.392" y="374.532" style="fill:#4095F2;" width="99.647" height="16.668"/>
	</g>
	<g>
		<g>
			<path style="fill:#4095F2;" d="M394.423,376.698H179.192c-0.29,0-0.524-0.235-0.524-0.524V225.24c0-0.29,0.235-0.524,0.524-0.524
				h215.231c0.29,0,0.524,0.235,0.524,0.524v150.934C394.947,376.464,394.713,376.698,394.423,376.698z"/>
		</g>
		<g>
			<rect x="183.728" y="229.835" style="fill:#EEF5FF;" width="206.16" height="124.622"/>
		</g>
		<g>
			<path style="fill:#A9CBF7;" d="M368.365,336.084H205.25c-0.253,0-0.458-0.205-0.458-0.458v-88.387
				c0-0.253,0.205-0.458,0.458-0.458h163.114c0.253,0,0.458,0.205,0.458,0.458v88.387
				C368.823,335.879,368.618,336.084,368.365,336.084z"/>
		</g>
		<g>
			<g>
				<path style="fill:#FFFFFF;" d="M212.206,252.341c0-1.024-0.83-1.853-1.853-1.853c-1.024,0-1.853,0.83-1.853,1.853
					c0,1.024,0.83,1.853,1.853,1.853C211.376,254.195,212.206,253.365,212.206,252.341z"/>
			</g>
			<g>
				<path style="fill:#FFFFFF;" d="M218.898,252.341c0-1.024-0.83-1.853-1.853-1.853c-1.024,0-1.853,0.83-1.853,1.853
					c0,1.024,0.83,1.853,1.853,1.853C218.068,254.195,218.898,253.365,218.898,252.341z"/>
			</g>
			<g>
				<path style="fill:#FFFFFF;" d="M225.59,252.341c0-1.024-0.83-1.853-1.853-1.853c-1.024,0-1.853,0.83-1.853,1.853
					c0,1.024,0.83,1.853,1.853,1.853C224.76,254.195,225.59,253.365,225.59,252.341z"/>
			</g>
		</g>
		<g>
			<path style="fill:#297EEC;" d="M270.28,374.757l-15.063,31.95c0,0,0.177,2.236,1.648,2.236h68.313v-2.236h-30.185l15.181-32.568
				L270.28,374.757z"/>
		</g>
		<g>
			<path style="fill:#9BB8BC;" d="M294.993,406.766h-37.069c-0.228,0-0.413-0.185-0.413-0.413c0-0.228,0.185-0.413,0.413-0.413
				h37.069c0.228,0,0.413,0.185,0.413,0.413C295.405,406.581,295.221,406.766,294.993,406.766z"/>
		</g>
	</g>
	<g>
		<g>
			<path style="fill:#297EEC;" d="M267.113,167.614c-0.375-0.286-0.792-0.518-1.237-0.694v-28.955h-3.887v28.952
				c-0.444,0.176-0.86,0.407-1.236,0.69c-1.287,0.96-2.118,2.499-2.118,4.228c0,2.928,2.37,5.297,5.291,5.297
				c2.935,0,5.304-2.37,5.304-5.297C269.231,170.106,268.401,168.574,267.113,167.614z M263.927,174.376
				c-1.396,0-2.54-1.137-2.54-2.54c0-1.403,1.144-2.54,2.54-2.54c1.41,0,2.54,1.137,2.54,2.54
				C266.466,173.238,265.336,174.375,263.927,174.376z M280.775,155.885l-0.488-1.137c-2.303-5.369-3.653-11.001-4.062-16.783
				h-3.908c0.415,6.313,1.886,12.458,4.398,18.315l0.487,1.136c-0.969,0.955-1.575,2.281-1.575,3.754
				c0,2.928,2.37,5.298,5.291,5.298c2.928,0,5.297-2.37,5.297-5.298c0-1.729-0.831-3.262-2.111-4.222
				c-0.885-0.674-1.988-1.069-3.186-1.069C280.869,155.879,280.822,155.884,280.775,155.885z M283.457,161.17
				c0,1.402-1.137,2.54-2.54,2.54c-1.396,0-2.54-1.137-2.54-2.54c0-1.396,1.144-2.54,2.54-2.54
				C282.319,158.63,283.457,159.774,283.457,161.17z M237.388,167.614c-0.375-0.286-0.792-0.518-1.237-0.694v-28.955h-3.887v28.952
				c-0.444,0.176-0.86,0.407-1.236,0.69c-1.287,0.96-2.118,2.499-2.118,4.228c0,2.928,2.37,5.297,5.291,5.297
				c2.935,0,5.304-2.37,5.304-5.297C239.506,170.106,238.675,168.574,237.388,167.614z M234.202,174.376
				c-1.396,0-2.54-1.137-2.54-2.54c0-1.403,1.144-2.54,2.54-2.54c1.41,0,2.54,1.137,2.54,2.54
				C236.741,173.238,235.611,174.375,234.202,174.376z M217.225,166.468c2.921,0,5.291-2.37,5.291-5.298
				c0-1.473-0.606-2.799-1.575-3.754l0.487-1.136c2.511-5.857,3.983-12.003,4.398-18.315h-3.908
				c-0.409,5.782-1.76,11.414-4.062,16.783l-0.488,1.137c-0.048-0.001-0.095-0.006-0.142-0.006c-1.198,0-2.301,0.395-3.186,1.069
				c-1.28,0.96-2.111,2.492-2.111,4.222C211.927,164.098,214.297,166.468,217.225,166.468z M217.225,158.63
				c1.396,0,2.54,1.144,2.54,2.54c0,1.402-1.144,2.54-2.54,2.54c-1.402,0-2.54-1.137-2.54-2.54
				C214.685,159.774,215.822,158.63,217.225,158.63z"/>
			<g>
				<g>
					<path style="fill:#297EEC;" d="M252.252,173.154c-0.376-0.287-0.795-0.517-1.237-0.696v-34.492h-3.889v34.487
						c-0.442,0.179-0.861,0.409-1.237,0.691c-1.284,0.959-2.116,2.502-2.116,4.227c0,2.93,2.37,5.3,5.29,5.3
						c2.934,0,5.304-2.37,5.304-5.3C254.368,175.646,253.54,174.113,252.252,173.154z M249.064,179.916
						c-1.397,0-2.539-1.138-2.539-2.544c0-1.401,1.143-2.539,2.539-2.539c1.411,0,2.539,1.138,2.539,2.539
						C251.603,178.778,250.474,179.916,249.064,179.916z"/>
				</g>
			</g>
		</g>
		<path style="fill:#F89D13;" d="M295.604,82.929c-1.602-15.2-14.458-27.047-30.083-27.047c-5.73,0-11.087,1.594-15.654,4.361
			c-4.596-3.225-10.191-5.124-16.232-5.124c-14.419,0-26.31,10.786-28.067,24.728c-12.167,3.833-20.991,15.203-20.991,28.636
			c0,16.579,13.44,30.019,30.019,30.02l0.001,0.002h70.113l-0.002-0.002c0.001,0,0.002,0,0.002,0
			c15.936,0,28.854-12.919,28.854-28.854C313.565,97.568,306.138,87.228,295.604,82.929z"/>
		<g>
			<g>
				<path style="fill:#FFFFFF;" d="M281.496,109.316c-0.608-4.192-2-8.18-4.147-11.852c-2.142-3.671-4.931-6.843-8.285-9.43
					c-3.48-2.679-7.408-4.602-11.682-5.726c-4.279-1.123-8.646-1.37-12.986-0.745c-4.191,0.608-8.18,2-11.851,4.148
					c-3.671,2.142-6.844,4.931-9.43,8.29c-2.679,3.474-4.603,7.402-5.726,11.676c-1.123,4.274-1.37,8.646-0.745,12.986
					c0.608,4.191,2,8.18,4.147,11.852c2.148,3.671,4.937,6.843,8.29,9.43c3.474,2.679,7.403,4.602,11.676,5.726
					c4.274,1.123,8.646,1.37,12.986,0.745c4.191-0.608,8.18-2,11.851-4.148c3.671-2.148,6.844-4.937,9.43-8.29
					c2.679-3.474,4.602-7.403,5.726-11.676C281.875,118.028,282.121,113.656,281.496,109.316z M271.568,119.893
					c-3.257,12.403-15.992,19.846-28.399,16.594c-12.403-3.257-19.847-15.992-16.594-28.4c3.257-12.403,15.992-19.846,28.399-16.594
					c6.006,1.577,11.042,5.4,14.178,10.763C272.286,107.62,273.14,113.882,271.568,119.893z"/>
			</g>
		</g>
		<path style="fill:#FFFFFF;" d="M239.604,129.457c0,0.414-0.335,0.749-0.749,0.749c-0.414,0-0.749-0.335-0.749-0.749
			c0-0.414,0.335-0.749,0.749-0.749C239.269,128.708,239.604,129.043,239.604,129.457z"/>
		<path style="fill:#FFFFFF;" d="M243.69,129.457c0,0.414-0.335,0.749-0.749,0.749c-0.414,0-0.749-0.335-0.749-0.749
			c0-0.414,0.335-0.749,0.749-0.749C243.355,128.708,243.69,129.043,243.69,129.457z"/>
		<path style="fill:#FFFFFF;" d="M247.777,129.457c0,0.414-0.335,0.749-0.749,0.749c-0.414,0-0.749-0.335-0.749-0.749
			c0-0.414,0.335-0.749,0.749-0.749C247.441,128.708,247.777,129.043,247.777,129.457z"/>
		<path style="fill:#FFFFFF;" d="M251.863,129.457c0,0.414-0.335,0.749-0.749,0.749c-0.414,0-0.749-0.335-0.749-0.749
			c0-0.414,0.335-0.749,0.749-0.749C251.527,128.708,251.863,129.043,251.863,129.457z"/>
		<path style="fill:#FFFFFF;" d="M256.198,129.457c0,0.551-0.447,0.998-0.999,0.998c-0.551,0-0.998-0.447-0.998-0.998
			c0-0.551,0.447-0.998,0.998-0.998C255.751,128.458,256.198,128.905,256.198,129.457z"/>
		<path style="fill:#FFFFFF;" d="M260.035,129.457c0,0.414-0.335,0.749-0.749,0.749c-0.414,0-0.749-0.335-0.749-0.749
			c0-0.414,0.335-0.749,0.749-0.749C259.699,128.708,260.035,129.043,260.035,129.457z"/>
	</g>
	<g>
		<path style="fill:#CBDBEF;" d="M64.857,200.302h-3.006v-3.017c0-0.65-0.527-1.171-1.177-1.171c-0.652,0-1.174,0.522-1.174,1.171
			v3.017h-3.008c-0.65,0-1.174,0.516-1.174,1.166c0,0.65,0.525,1.182,1.174,1.182H59.5v3.003c0,0.649,0.522,1.179,1.174,1.179
			c0.65,0,1.177-0.53,1.177-1.179v-3.003h3.006c0.65,0,1.177-0.532,1.177-1.182C66.033,200.818,65.506,200.302,64.857,200.302z"/>
		<path style="fill:#CBDBEF;" d="M432.43,187.144h-3.006v-3.016c0-0.65-0.527-1.171-1.177-1.171c-0.652,0-1.174,0.522-1.174,1.171
			v3.016h-3.008c-0.65,0-1.174,0.516-1.174,1.166c0,0.65,0.525,1.182,1.174,1.182h3.008v3.003c0,0.649,0.522,1.179,1.174,1.179
			c0.65,0,1.177-0.53,1.177-1.179v-3.003h3.006c0.65,0,1.177-0.532,1.177-1.182C433.607,187.661,433.08,187.144,432.43,187.144z"/>
		<g>
			<path style="fill:#CBDBEF;" d="M382.095,110.365c0,2.894,2.356,5.25,5.247,5.25c2.894,0,5.247-2.356,5.247-5.25
				c0-2.891-2.353-5.25-5.247-5.25C384.451,105.115,382.095,107.474,382.095,110.365z M384.108,110.365
				c0-1.784,1.451-3.237,3.235-3.237c1.786,0,3.235,1.454,3.235,3.237c0,1.786-1.448,3.235-3.235,3.235
				C385.559,113.6,384.108,112.152,384.108,110.365z"/>
		</g>
		<g>
			<path style="fill:#CBDBEF;" d="M163.752,105.115c0,2.894,2.356,5.25,5.247,5.25c2.894,0,5.247-2.356,5.247-5.25
				c0-2.891-2.354-5.25-5.247-5.25C166.108,99.865,163.752,102.224,163.752,105.115z M165.765,105.115
				c0-1.784,1.451-3.237,3.235-3.237c1.786,0,3.235,1.454,3.235,3.237c0,1.786-1.448,3.235-3.235,3.235
				C167.216,108.35,165.765,106.901,165.765,105.115z"/>
		</g>
		<g>
			<path style="fill:#CBDBEF;" d="M59.932,153.072c0,2.894,2.356,5.25,5.247,5.25c2.894,0,5.247-2.356,5.247-5.25
				c0-2.891-2.354-5.25-5.247-5.25C62.288,147.822,59.932,150.181,59.932,153.072z M61.944,153.072c0-1.784,1.451-3.237,3.235-3.237
				c1.786,0,3.235,1.454,3.235,3.237c0,1.786-1.448,3.235-3.235,3.235C63.395,156.307,61.944,154.859,61.944,153.072z"/>
		</g>
		<g>
			<path style="fill:#CBDBEF;" d="M382.617,139.263c-0.735,0-1.323,0.599-1.323,1.328c0,0.738,0.588,1.318,1.323,1.318h13.229
				c0.732,0,1.326-0.58,1.326-1.318c0-0.729-0.594-1.328-1.326-1.328H382.617z"/>
		</g>
		<g>
			<path style="fill:#CBDBEF;" d="M401.517,139.263c-0.727,0-1.323,0.599-1.323,1.328c0,0.738,0.596,1.318,1.323,1.318h2.428
				c0.732,0,1.321-0.58,1.321-1.318c0-0.729-0.588-1.328-1.321-1.328H401.517z"/>
		</g>
		<g>
			<g>
				<path style="fill:#CBDBEF;" d="M94.321,126.294c-0.735,0-1.323,0.599-1.323,1.328c0,0.738,0.588,1.318,1.323,1.318h13.229
					c0.732,0,1.326-0.58,1.326-1.318c0-0.729-0.593-1.328-1.326-1.328H94.321z"/>
			</g>
			<g>
				<path style="fill:#CBDBEF;" d="M113.22,126.294c-0.727,0-1.323,0.599-1.323,1.328c0,0.738,0.596,1.318,1.323,1.318h2.428
					c0.732,0,1.321-0.58,1.321-1.318c0-0.729-0.588-1.328-1.321-1.328H113.22z"/>
			</g>
		</g>
		<g>
			<path style="fill:#CBDBEF;" d="M440.097,234.539c-0.701,0-1.263,0.599-1.263,1.328c0,0.738,0.561,1.318,1.263,1.318h12.623
				c0.699,0,1.265-0.58,1.265-1.318c0-0.729-0.566-1.328-1.265-1.328H440.097z"/>
		</g>
		<g>
			<path style="fill:#CBDBEF;" d="M462.783,234.539c-0.694,0-1.263,0.599-1.263,1.328c0,0.738,0.569,1.318,1.263,1.318h2.317
				c0.699,0,1.26-0.58,1.26-1.318c0-0.729-0.561-1.328-1.26-1.328H462.783z"/>
		</g>
	</g>
	<g>
		<g>
			<g>
				<path style="fill:#FFFFFF;" d="M414.935,279.691c0,2.994,0,2.994,0,2.994v79.725c0,2.172-1.761,3.932-3.933,3.932h-140.01
					c-2.172,0-3.932-1.761-3.932-3.932V279.69c0-2.172,1.761-3.932,3.932-3.932h140.01
					C413.174,275.757,414.935,277.52,414.935,279.691z"/>
			</g>
		</g>
		<g>
			<g>
				<path style="fill:#F89D13;" d="M328.838,326.554c0,6.717-2.54,12.837-6.711,17.456c-4.77,5.281-11.67,8.6-19.346,8.6
					c-14.393,0-26.059-11.663-26.059-26.056c0-3.569,0.719-6.971,2.018-10.071l24.041,10.071l-1.234-26.025
					c0.404-0.024,0.819-0.031,1.234-0.031C317.171,300.497,328.838,312.163,328.838,326.554z"/>
			</g>
			<g>
				<g>
					<path style="fill:#297EEC;" d="M298.953,296.229c-7.787,0.36-14.675,4.137-19.208,9.867c-1.459,1.842-2.673,3.888-3.596,6.087
						l24.039,10.07L298.953,296.229z"/>
				</g>
			</g>
		</g>
		<g>
			<g>
				<g>
					<g>
						<rect x="387.989" y="308.609" style="fill:#D68A2F;" width="3.578" height="3.578"/>
					</g>
				</g>
				<g>
					<path style="fill:#297EEC;" d="M406.802,310.847h-12.821c-0.021,0-0.039-0.018-0.039-0.039v-0.818
						c0-0.022,0.018-0.039,0.039-0.039h12.821c0.022,0,0.039,0.017,0.039,0.039v0.818
						C406.841,310.829,406.823,310.847,406.802,310.847z"/>
				</g>
			</g>
			<g>
				<g>
					<g>
						<rect x="387.989" y="302.232" style="fill:#297EEC;" width="3.578" height="3.578"/>
					</g>
				</g>
				<g>
					<g>
						<path style="fill:#297EEC;" d="M406.802,304.47h-12.821c-0.021,0-0.039-0.017-0.039-0.039v-0.818
							c0-0.022,0.018-0.039,0.039-0.039h12.821c0.022,0,0.039,0.018,0.039,0.039v0.818
							C406.841,304.452,406.823,304.47,406.802,304.47z"/>
					</g>
				</g>
			</g>
			<g>
				<g>
					<g>
						<rect x="387.989" y="314.984" style="fill:#F89D13;" width="3.578" height="3.578"/>
					</g>
				</g>
				<g>
					<g>
						<path style="fill:#297EEC;" d="M406.802,317.222h-12.821c-0.021,0-0.039-0.017-0.039-0.039v-0.818
							c0-0.022,0.018-0.039,0.039-0.039h12.821c0.022,0,0.039,0.017,0.039,0.039v0.818
							C406.841,317.204,406.823,317.222,406.802,317.222z"/>
					</g>
				</g>
			</g>
			<g>
				<g>
					<g>
						<path style="fill:#297EEC;" d="M406.392,329.777h-17.956c-0.247,0-0.448-0.2-0.448-0.448l0,0c0-0.247,0.2-0.448,0.448-0.448
							h17.956c0.248,0,0.448,0.201,0.448,0.448l0,0C406.841,329.577,406.64,329.777,406.392,329.777z"/>
					</g>
				</g>
				<g>
					<g>
						<path style="fill:#297EEC;" d="M406.392,333.457h-17.956c-0.247,0-0.448-0.201-0.448-0.448l0,0c0-0.247,0.2-0.448,0.448-0.448
							h17.956c0.248,0,0.448,0.201,0.448,0.448l0,0C406.841,333.256,406.64,333.457,406.392,333.457z"/>
					</g>
				</g>
				<g>
					<g>
						<path style="fill:#297EEC;" d="M406.392,337.136h-17.956c-0.247,0-0.448-0.201-0.448-0.448l0,0c0-0.247,0.2-0.448,0.448-0.448
							h17.956c0.248,0,0.448,0.201,0.448,0.448l0,0C406.841,336.935,406.64,337.136,406.392,337.136z"/>
					</g>
				</g>
				<g>
					<g>
						<path style="fill:#297EEC;" d="M406.392,340.815h-17.956c-0.247,0-0.448-0.201-0.448-0.448l0,0c0-0.248,0.2-0.448,0.448-0.448
							h17.956c0.248,0,0.448,0.2,0.448,0.448l0,0C406.841,340.614,406.64,340.815,406.392,340.815z"/>
					</g>
				</g>
				<g>
					<g>
						<path style="fill:#297EEC;" d="M406.392,344.494h-17.956c-0.247,0-0.448-0.201-0.448-0.448l0,0c0-0.248,0.2-0.448,0.448-0.448
							h17.956c0.248,0,0.448,0.2,0.448,0.448l0,0C406.841,344.294,406.64,344.494,406.392,344.494z"/>
					</g>
				</g>
				<g>
					<g>
						<path style="fill:#297EEC;" d="M406.392,348.174h-17.956c-0.247,0-0.448-0.201-0.448-0.448l0,0c0-0.247,0.2-0.448,0.448-0.448
							h17.956c0.248,0,0.448,0.201,0.448,0.448l0,0C406.841,347.973,406.64,348.174,406.392,348.174z"/>
					</g>
				</g>
				<g>
					<g>
						<path style="fill:#297EEC;" d="M406.392,351.853h-17.956c-0.247,0-0.448-0.201-0.448-0.448l0,0c0-0.247,0.2-0.448,0.448-0.448
							h17.956c0.248,0,0.448,0.201,0.448,0.448l0,0C406.841,351.652,406.64,351.853,406.392,351.853z"/>
					</g>
				</g>
			</g>
		</g>
		<g>
			<g>
				<path style="fill:#184785;" d="M414.935,279.691c0,2.994,0,2.994,0,2.994v3.908H267.06v-6.904c0-2.172,1.761-3.932,3.932-3.932
					h140.01C413.174,275.757,414.935,277.52,414.935,279.691z"/>
			</g>
		</g>
		<g>
			<g>
				<g>
					<g>
						<g>
							<g>
								<path style="fill:#297EEC;" d="M399.357,281.176c0,1.006-0.816,1.822-1.822,1.822c-1.006,0-1.822-0.815-1.822-1.822
									s0.815-1.822,1.822-1.822C398.541,279.354,399.357,280.169,399.357,281.176z"/>
							</g>
						</g>
					</g>
				</g>
			</g>
			<g>
				<path style="fill:#D68A2F;" d="M405.261,281.176c0,1.006-0.816,1.822-1.822,1.822c-1.006,0-1.822-0.815-1.822-1.822
					s0.816-1.822,1.822-1.822C404.446,279.354,405.261,280.169,405.261,281.176z"/>
			</g>
			<g>
				<g>
					<g>
						<g>
							<g>
								<path style="fill:#F89D13;" d="M410.915,281.176c0,1.006-0.816,1.822-1.822,1.822c-1.006,0-1.822-0.815-1.822-1.822
									s0.816-1.822,1.822-1.822C410.099,279.354,410.915,280.169,410.915,281.176z"/>
							</g>
						</g>
					</g>
				</g>
			</g>
		</g>
		<g>
			<g>
				<path style="fill:#D68A2F;" d="M328.838,326.554c0,6.717-2.54,12.837-6.711,17.456l-19.346-17.456l-1.234-26.025
					c0.404-0.024,0.819-0.031,1.234-0.031C317.171,300.497,328.838,312.163,328.838,326.554z"/>
			</g>
		</g>
		<g>
			<g>
				<g>
					<g>
						<rect x="354.209" y="319.971" style="fill:#297EEC;" width="8.296" height="35.547"/>
					</g>
					<g>
						<g>
							<path style="fill:#F89D13;" d="M354.209,346.143c2.939-0.908,5.695-2.535,8.296-4.285v13.661h-8.296V346.143z"/>
						</g>
					</g>
				</g>
				<g>
					<g>
						<rect x="340.649" y="329.849" style="fill:#297EEC;" width="8.296" height="25.67"/>
					</g>
					<g>
						<g>
							<path style="fill:#F89D13;" d="M347.41,346.744c0.517,0.075,1.029,0.121,1.536,0.141v8.633h-8.296v-8.552
								C342.117,346.483,344.265,346.285,347.41,346.744z"/>
						</g>
					</g>
				</g>
				<g>
					<g>
						<rect x="367.768" y="309.351" style="fill:#297EEC;" width="8.296" height="46.168"/>
					</g>
					<g>
						<g>
							<path style="fill:#F89D13;" d="M376.065,334.653v20.866h-8.296v-17.323C370.717,336.193,373.465,334.642,376.065,334.653z"/>
						</g>
					</g>
				</g>
			</g>
			<g>
				<g>
					<path style="fill:#D68A2F;" d="M375.729,295.892l-7.487,1.606l2.01,1.972l-11.462,11.686l-4.022-3.946l-14.225,14.502
						c-0.543,0.553-0.534,1.442,0.019,1.985l0,0c0.553,0.543,1.442,0.534,1.985-0.019l12.259-12.498l4.022,3.946l13.428-13.69
						l2.01,1.972L375.729,295.892z"/>
				</g>
			</g>
		</g>
	</g>
	<g>
		<path style="fill:#124072;" d="M214.453,409.001H100.306v-10.205c0-1.141,0.925-2.065,2.065-2.065h110.016
			c1.141,0,2.065,0.925,2.065,2.065V409.001z"/>
		<path style="fill:#124072;" d="M212.569,277.76h-20.422c-1.04,0-1.883-0.843-1.883-1.883v-25.85c0-1.04,0.843-1.883,1.883-1.883
			h20.422c1.04,0,1.883,0.843,1.883,1.883v25.85C214.453,276.917,213.61,277.76,212.569,277.76z"/>
		<path style="fill:#184785;" d="M198.686,277.76h-96.615c-0.975,0-1.765-0.79-1.765-1.765v-26.088c0-0.975,0.79-1.765,1.765-1.765
			h96.615c0.975,0,1.765,0.79,1.765,1.765v26.088C200.45,276.97,199.66,277.76,198.686,277.76z"/>
		<path style="fill:#FFFFFF;" d="M192.373,272.802h-84.609c-0.57,0-1.033-0.462-1.033-1.033v-16.381c0-0.57,0.462-1.033,1.033-1.033
			h84.609c0.57,0,1.033,0.462,1.033,1.033v16.381C193.406,272.34,192.944,272.802,192.373,272.802z"/>
		<path style="fill:#297EEC;" d="M109.968,263.772c0-1.027,0.82-1.859,1.832-1.859c1.012,0,1.832,0.832,1.832,1.859
			c0,1.027-0.82,1.859-1.832,1.859C110.789,265.631,109.968,264.799,109.968,263.772z"/>
		<path style="fill:#F89D13;" d="M116.108,263.772c0-1.027,0.82-1.859,1.832-1.859c1.012,0,1.832,0.832,1.832,1.859
			c0,1.027-0.82,1.859-1.832,1.859C116.929,265.631,116.108,264.799,116.108,263.772z"/>
		<path style="fill:#297EEC;" d="M122.248,263.772c0-1.027,0.82-1.859,1.832-1.859c1.012,0,1.833,0.832,1.833,1.859
			c0,1.027-0.82,1.859-1.833,1.859C123.069,265.631,122.248,264.799,122.248,263.772z"/>
		<path style="fill:#297EEC;" d="M128.388,263.772c0-1.027,0.82-1.859,1.832-1.859c1.012,0,1.832,0.832,1.832,1.859
			c0,1.027-0.82,1.859-1.832,1.859C129.209,265.631,128.388,264.799,128.388,263.772z"/>
		<path style="fill:#297EEC;" d="M188.999,269.371h-8.892c-0.186,0-0.337-0.151-0.337-0.337v-10.523
			c0-0.186,0.151-0.337,0.337-0.337h8.892c0.186,0,0.337,0.151,0.337,0.337v10.523C189.336,269.22,189.185,269.371,188.999,269.371z
			"/>
		<rect x="107.446" y="277.76" style="fill:#124072;" width="90.339" height="7.931"/>
		<rect x="197.69" y="277.76" style="fill:#4095F2;" width="4.046" height="7.931"/>
		<path style="fill:#297EEC;" d="M172.89,269.371h-1.61c-0.156,0-0.283-0.127-0.283-0.283v-10.631c0-0.157,0.127-0.283,0.283-0.283
			h1.61c0.156,0,0.283,0.127,0.283,0.283v10.631C173.174,269.244,173.047,269.371,172.89,269.371z"/>
		<path style="fill:#297EEC;" d="M165.09,269.371h-1.61c-0.156,0-0.283-0.127-0.283-0.283v-10.631c0-0.157,0.127-0.283,0.283-0.283
			h1.61c0.156,0,0.283,0.127,0.283,0.283v10.631C165.373,269.244,165.246,269.371,165.09,269.371z"/>
		<path style="fill:#297EEC;" d="M157.289,269.371h-1.61c-0.156,0-0.283-0.127-0.283-0.283v-10.631c0-0.157,0.127-0.283,0.283-0.283
			h1.61c0.156,0,0.283,0.127,0.283,0.283v10.631C157.572,269.244,157.445,269.371,157.289,269.371z"/>
		<path style="fill:#297EEC;" d="M149.488,269.371h-1.61c-0.156,0-0.283-0.127-0.283-0.283v-10.631c0-0.157,0.127-0.283,0.283-0.283
			h1.61c0.156,0,0.283,0.127,0.283,0.283v10.631C149.771,269.244,149.645,269.371,149.488,269.371z"/>
		<path style="fill:#297EEC;" d="M141.687,269.371h-1.61c-0.156,0-0.283-0.127-0.283-0.283v-10.631c0-0.157,0.127-0.283,0.283-0.283
			h1.61c0.156,0,0.283,0.127,0.283,0.283v10.631C141.971,269.244,141.844,269.371,141.687,269.371z"/>
		<rect x="107.446" y="277.76" style="fill:#4095F2;" width="90.244" height="2.775"/>
		<path style="fill:#124072;" d="M212.569,315.11h-20.422c-1.04,0-1.883-0.843-1.883-1.883v-25.85c0-1.04,0.843-1.883,1.883-1.883
			h20.422c1.04,0,1.883,0.843,1.883,1.883v25.85C214.453,314.266,213.61,315.11,212.569,315.11z"/>
		<path style="fill:#184785;" d="M198.686,315.11h-96.615c-0.975,0-1.765-0.79-1.765-1.765v-26.088c0-0.975,0.79-1.765,1.765-1.765
			h96.615c0.975,0,1.765,0.79,1.765,1.765v26.088C200.45,314.32,199.66,315.11,198.686,315.11z"/>
		<path style="fill:#FFFFFF;" d="M192.373,310.152h-84.609c-0.57,0-1.033-0.462-1.033-1.033v-16.381c0-0.57,0.462-1.033,1.033-1.033
			h84.609c0.57,0,1.033,0.462,1.033,1.033v16.381C193.406,309.69,192.944,310.152,192.373,310.152z"/>
		<rect x="107.446" y="315.11" style="fill:#124072;" width="90.339" height="7.931"/>
		<rect x="197.69" y="315.11" style="fill:#4095F2;" width="4.046" height="7.931"/>
		<g>
			<path style="fill:#297EEC;" d="M189.456,301.122c0-1.027-0.82-1.859-1.833-1.859c-1.012,0-1.832,0.832-1.832,1.859
				c0,1.027,0.82,1.859,1.832,1.859C188.635,302.981,189.456,302.149,189.456,301.122z"/>
			<path style="fill:#F89D13;" d="M183.315,301.122c0-1.027-0.82-1.859-1.832-1.859c-1.012,0-1.832,0.832-1.832,1.859
				c0,1.027,0.82,1.859,1.832,1.859C182.495,302.981,183.315,302.149,183.315,301.122z"/>
			<path style="fill:#297EEC;" d="M177.175,301.122c0-1.027-0.82-1.859-1.833-1.859s-1.832,0.832-1.832,1.859
				c0,1.027,0.82,1.859,1.832,1.859S177.175,302.149,177.175,301.122z"/>
			<path style="fill:#297EEC;" d="M171.035,301.122c0-1.027-0.82-1.859-1.832-1.859c-1.012,0-1.833,0.832-1.833,1.859
				c0,1.027,0.82,1.859,1.833,1.859C170.215,302.981,171.035,302.149,171.035,301.122z"/>
			<path style="fill:#297EEC;" d="M110.425,306.721h8.892c0.186,0,0.337-0.151,0.337-0.337v-10.523c0-0.186-0.151-0.337-0.337-0.337
				h-8.892c-0.186,0-0.337,0.151-0.337,0.337v10.523C110.087,306.57,110.238,306.721,110.425,306.721z"/>
			<path style="fill:#297EEC;" d="M126.533,306.721h1.61c0.157,0,0.283-0.127,0.283-0.283v-10.631c0-0.156-0.127-0.283-0.283-0.283
				h-1.61c-0.157,0-0.283,0.127-0.283,0.283v10.631C126.25,306.594,126.377,306.721,126.533,306.721z"/>
			<path style="fill:#297EEC;" d="M134.334,306.721h1.61c0.157,0,0.283-0.127,0.283-0.283v-10.631c0-0.156-0.127-0.283-0.283-0.283
				h-1.61c-0.157,0-0.283,0.127-0.283,0.283v10.631C134.051,306.594,134.178,306.721,134.334,306.721z"/>
			<path style="fill:#297EEC;" d="M142.135,306.721h1.61c0.157,0,0.283-0.127,0.283-0.283v-10.631c0-0.156-0.127-0.283-0.283-0.283
				h-1.61c-0.157,0-0.283,0.127-0.283,0.283v10.631C141.852,306.594,141.978,306.721,142.135,306.721z"/>
			<path style="fill:#297EEC;" d="M149.936,306.721h1.61c0.157,0,0.283-0.127,0.283-0.283v-10.631c0-0.156-0.127-0.283-0.283-0.283
				h-1.61c-0.157,0-0.283,0.127-0.283,0.283v10.631C149.652,306.594,149.779,306.721,149.936,306.721z"/>
			<path style="fill:#297EEC;" d="M157.736,306.721h1.61c0.157,0,0.283-0.127,0.283-0.283v-10.631c0-0.156-0.127-0.283-0.283-0.283
				h-1.61c-0.157,0-0.283,0.127-0.283,0.283v10.631C157.453,306.594,157.58,306.721,157.736,306.721z"/>
		</g>
		<rect x="107.446" y="315.11" style="fill:#4095F2;" width="90.244" height="2.775"/>
		<path style="fill:#124072;" d="M212.569,352.459h-20.422c-1.04,0-1.883-0.843-1.883-1.883v-25.85c0-1.04,0.843-1.883,1.883-1.883
			h20.422c1.04,0,1.883,0.843,1.883,1.883v25.85C214.453,351.616,213.61,352.459,212.569,352.459z"/>
		<path style="fill:#184785;" d="M198.686,352.459h-96.615c-0.975,0-1.765-0.79-1.765-1.765v-26.088c0-0.975,0.79-1.765,1.765-1.765
			h96.615c0.975,0,1.765,0.79,1.765,1.765v26.088C200.45,351.669,199.66,352.459,198.686,352.459z"/>
		<path style="fill:#FFFFFF;" d="M192.373,347.502h-84.609c-0.57,0-1.033-0.462-1.033-1.033v-16.381c0-0.57,0.462-1.033,1.033-1.033
			h84.609c0.57,0,1.033,0.462,1.033,1.033v16.381C193.406,347.039,192.944,347.502,192.373,347.502z"/>
		<path style="fill:#297EEC;" d="M109.968,338.472c0-1.027,0.82-1.859,1.832-1.859c1.012,0,1.832,0.832,1.832,1.859
			c0,1.027-0.82,1.859-1.832,1.859C110.789,340.331,109.968,339.499,109.968,338.472z"/>
		<path style="fill:#F89D13;" d="M116.108,338.472c0-1.027,0.82-1.859,1.832-1.859c1.012,0,1.832,0.832,1.832,1.859
			c0,1.027-0.82,1.859-1.832,1.859C116.929,340.331,116.108,339.499,116.108,338.472z"/>
		<path style="fill:#297EEC;" d="M122.248,338.472c0-1.027,0.82-1.859,1.832-1.859c1.012,0,1.833,0.832,1.833,1.859
			c0,1.027-0.82,1.859-1.833,1.859C123.069,340.331,122.248,339.499,122.248,338.472z"/>
		<path style="fill:#F89D13;" d="M128.388,338.472c0-1.027,0.82-1.859,1.832-1.859c1.012,0,1.832,0.832,1.832,1.859
			c0,1.027-0.82,1.859-1.832,1.859C129.209,340.331,128.388,339.499,128.388,338.472z"/>
		<path style="fill:#297EEC;" d="M188.999,344.071h-8.892c-0.186,0-0.337-0.151-0.337-0.337V333.21c0-0.186,0.151-0.337,0.337-0.337
			h8.892c0.186,0,0.337,0.151,0.337,0.337v10.523C189.336,343.92,189.185,344.071,188.999,344.071z"/>
		<rect x="107.446" y="352.459" style="fill:#124072;" width="90.339" height="7.931"/>
		<rect x="197.69" y="352.459" style="fill:#4095F2;" width="4.046" height="7.931"/>
		<path style="fill:#297EEC;" d="M172.89,344.071h-1.61c-0.156,0-0.283-0.127-0.283-0.283v-10.631c0-0.157,0.127-0.283,0.283-0.283
			h1.61c0.156,0,0.283,0.127,0.283,0.283v10.631C173.174,343.944,173.047,344.071,172.89,344.071z"/>
		<path style="fill:#297EEC;" d="M165.09,344.071h-1.61c-0.156,0-0.283-0.127-0.283-0.283v-10.631c0-0.157,0.127-0.283,0.283-0.283
			h1.61c0.156,0,0.283,0.127,0.283,0.283v10.631C165.373,343.944,165.246,344.071,165.09,344.071z"/>
		<path style="fill:#297EEC;" d="M157.289,344.071h-1.61c-0.156,0-0.283-0.127-0.283-0.283v-10.631c0-0.157,0.127-0.283,0.283-0.283
			h1.61c0.156,0,0.283,0.127,0.283,0.283v10.631C157.572,343.944,157.445,344.071,157.289,344.071z"/>
		<path style="fill:#297EEC;" d="M149.488,344.071h-1.61c-0.156,0-0.283-0.127-0.283-0.283v-10.631c0-0.157,0.127-0.283,0.283-0.283
			h1.61c0.156,0,0.283,0.127,0.283,0.283v10.631C149.771,343.944,149.645,344.071,149.488,344.071z"/>
		<path style="fill:#297EEC;" d="M141.687,344.071h-1.61c-0.156,0-0.283-0.127-0.283-0.283v-10.631c0-0.157,0.127-0.283,0.283-0.283
			h1.61c0.156,0,0.283,0.127,0.283,0.283v10.631C141.971,343.944,141.844,344.071,141.687,344.071z"/>
		<rect x="107.446" y="352.459" style="fill:#4095F2;" width="90.244" height="2.775"/>
		<path style="fill:#124072;" d="M212.569,389.809h-20.422c-1.04,0-1.883-0.843-1.883-1.883v-25.85c0-1.04,0.843-1.883,1.883-1.883
			h20.422c1.04,0,1.883,0.843,1.883,1.883v25.85C214.453,388.966,213.61,389.809,212.569,389.809z"/>
		<path style="fill:#184785;" d="M198.686,389.809h-96.615c-0.975,0-1.765-0.79-1.765-1.765v-26.088c0-0.975,0.79-1.765,1.765-1.765
			h96.615c0.975,0,1.765,0.79,1.765,1.765v26.088C200.45,389.019,199.66,389.809,198.686,389.809z"/>
		<path style="fill:#FFFFFF;" d="M192.373,384.851h-84.609c-0.57,0-1.033-0.462-1.033-1.033v-16.381c0-0.57,0.462-1.033,1.033-1.033
			h84.609c0.57,0,1.033,0.462,1.033,1.033v16.381C193.406,384.389,192.944,384.851,192.373,384.851z"/>
		<rect x="107.446" y="389.809" style="fill:#124072;" width="90.339" height="7.931"/>
		<rect x="197.69" y="389.809" style="fill:#4095F2;" width="4.046" height="7.931"/>
		<g>
			<ellipse style="fill:#297EEC;" cx="112.217" cy="375.822" rx="1.832" ry="1.859"/>
			<path style="fill:#F89D13;" d="M116.525,375.822c0-1.027,0.82-1.859,1.832-1.859c1.012,0,1.833,0.832,1.833,1.859
				c0,1.027-0.82,1.859-1.833,1.859C117.345,377.681,116.525,376.848,116.525,375.822z"/>
			<ellipse style="fill:#297EEC;" cx="124.497" cy="375.822" rx="1.832" ry="1.859"/>
			<path style="fill:#297EEC;" d="M128.805,375.822c0-1.027,0.82-1.859,1.833-1.859c1.012,0,1.832,0.832,1.832,1.859
				c0,1.027-0.82,1.859-1.832,1.859C129.625,377.681,128.805,376.848,128.805,375.822z"/>
			<path style="fill:#297EEC;" d="M189.415,381.421h-8.892c-0.186,0-0.337-0.151-0.337-0.337V370.56
				c0-0.186,0.151-0.337,0.337-0.337h8.892c0.186,0,0.337,0.151,0.337,0.337v10.523
				C189.753,381.269,189.602,381.421,189.415,381.421z"/>
			<path style="fill:#297EEC;" d="M173.307,381.421h-1.61c-0.157,0-0.283-0.127-0.283-0.283v-10.631
				c0-0.157,0.127-0.283,0.283-0.283h1.61c0.157,0,0.283,0.127,0.283,0.283v10.631C173.59,381.294,173.463,381.421,173.307,381.421z
				"/>
			<path style="fill:#297EEC;" d="M165.506,381.421h-1.61c-0.157,0-0.283-0.127-0.283-0.283v-10.631
				c0-0.157,0.127-0.283,0.283-0.283h1.61c0.157,0,0.283,0.127,0.283,0.283v10.631C165.79,381.294,165.663,381.421,165.506,381.421z
				"/>
			<path style="fill:#297EEC;" d="M157.705,381.421h-1.61c-0.157,0-0.283-0.127-0.283-0.283v-10.631
				c0-0.157,0.127-0.283,0.283-0.283h1.61c0.157,0,0.283,0.127,0.283,0.283v10.631C157.989,381.294,157.862,381.421,157.705,381.421
				z"/>
			<path style="fill:#297EEC;" d="M149.905,381.421h-1.61c-0.157,0-0.283-0.127-0.283-0.283v-10.631
				c0-0.157,0.127-0.283,0.283-0.283h1.61c0.157,0,0.283,0.127,0.283,0.283v10.631C150.188,381.294,150.061,381.421,149.905,381.421
				z"/>
			<path style="fill:#297EEC;" d="M142.104,381.421h-1.61c-0.157,0-0.283-0.127-0.283-0.283v-10.631
				c0-0.157,0.127-0.283,0.283-0.283h1.61c0.157,0,0.283,0.127,0.283,0.283v10.631C142.387,381.294,142.26,381.421,142.104,381.421z
				"/>
		</g>
		<rect x="107.446" y="389.809" style="fill:#4095F2;" width="90.244" height="2.775"/>
		<path style="fill:#184785;" d="M200.45,409.001H100.306v-10.205c0-1.141,0.925-2.065,2.065-2.065h96.014
			c1.141,0,2.065,0.925,2.065,2.065V409.001z"/>
	</g>
	<path style="fill:#124072;" d="M441.301,415.29H58.699c-2.344,0-4.262-1.918-4.262-4.262l0,0c0-2.344,1.918-4.262,4.262-4.262
		h382.602c2.344,0,4.262,1.918,4.262,4.262l0,0C445.563,413.372,443.645,415.29,441.301,415.29z"/>
	<g>
		<path style="fill:#FFFFFF;" d="M332.871,139.428h12.099c0,0,14.161,12.982,15.382,22.148c1.221,9.166-4.177,46.012-20.868,44.101
			C322.793,203.766,316.788,152.08,332.871,139.428z"/>
		<path style="fill:#F9EFE8;" d="M354.4,163.574c0,0-6.304,4.989-11.802,7.397c-5.498,2.409-9.132,1.111-6.922,9.417
			c6.03,22.657,19.819,15.987,19.819,15.987S364.912,162.308,354.4,163.574z"/>
		<path style="fill:#4095F2;" d="M332.871,139.428c0,0,0.721,35.6-2.453,62.7l20.213,0.164c0,0-8.512-33.014-5.661-62.865
			c0,0,11.189,0.92,18.321,10.775c7.512,10.38,14.291,20.148,19.006,31.087l-11.902,14.156c-2.679-4.628-6.709-12.687-6.709-12.687
			l3.036,17.101c0,0-28.538,11.457-52.56-0.961l3.642-15.824c0,0-5.176,10.408-6.495,11.521l-12.672-12.101
			C310.431,152.768,319.998,141.047,332.871,139.428z"/>
		<path style="fill:#297EEC;" d="M317.803,183.076l4.01-18.467c0,0-8.1,13.244-17.695,22.618c0,0,4.204,4.362,7.19,7.37
			C311.308,194.598,315.492,188.781,317.803,183.076z"/>
		<path style="fill:#297EEC;" d="M363.383,182.569l-4.01-18.467c0,0,9.163,14.603,18.757,23.977c0,0-4.751,4.36-7.737,7.369
			C370.394,195.447,365.694,188.273,363.383,182.569z"/>
		<path style="fill:#F7BBA6;" d="M382.308,227.386l-12.045-1.752l0.657-9.308l16.534,3.395
			C387.454,219.721,389.964,226.271,382.308,227.386z"/>
		<path style="fill:#F89D13;" d="M383.512,218.038c0,0,16.315-2.306,20.914-0.804c4.599,1.501,3.285,5.224-0.438,7.524
			c-3.723,2.299-19.053,2.847-21.681,2.628c0,0,3.049-1.533,1.095-3.066S379.793,218.18,383.512,218.038z"/>
		<path style="fill:#CC7E29;" d="M378.441,227.39c0,0-65.635-1.306-82.91-7.496c-17.275-6.19-11.929-24.121-0.789-26.824
			s85.07,18.798,85.07,18.798L378.441,227.39z"/>
		<path style="fill:#F7BBA6;" d="M301.247,226.218l12.045-1.752l-0.657-9.308l-16.534,3.395
			C296.1,218.554,293.591,225.103,301.247,226.218z"/>
		<path style="fill:#F89D13;" d="M300.042,216.871c0,0-16.315-2.306-20.914-0.804c-4.599,1.501-3.285,5.224,0.438,7.524
			s19.053,2.847,21.681,2.628c0,0-3.049-1.533-1.095-3.066S303.761,217.012,300.042,216.871z"/>
		<path style="fill:#D68A2F;" d="M305.967,227.39c0,0,65.641-1,82.944-7.11c17.303-6.11,12.041-24.066,0.914-26.82
			c-11.128-2.754-85.157,18.402-85.157,18.402L305.967,227.39z"/>
		<path style="fill:#4095F2;" d="M339.595,193.213l0.272,5.882c0,0-26.683,3.482-36.892-4.497
			c-9.533-7.451-3.045-21.505,5.929-19.209C312.66,176.349,339.595,193.213,339.595,193.213z"/>
		<g>
			<path style="fill:#F8C2AB;" d="M339.595,193.213c0,0,6.19,0.313,8.491,0.926c2.301,0.613,6.849,3.329,5.752,5.868
				c-0.378,0.874-1.909,0.735-3.701,0.239c-2.94-0.813-5.39-1.74-10.27-1.151L339.595,193.213z"/>
		</g>
		<path style="fill:#4095F2;" d="M341.855,193.213l-0.272,5.882c0,0,26.683,3.482,36.892-4.497
			c9.533-7.451,3.045-21.505-5.929-19.209C368.79,176.349,341.855,193.213,341.855,193.213z"/>
		<g>
			<path style="fill:#F8C2AB;" d="M341.855,193.213c0,0-6.19,0.313-8.491,0.926c-2.301,0.613-6.849,3.329-5.752,5.868
				c0.378,0.874,1.909,0.735,3.701,0.239c2.941-0.813,5.39-1.74,10.27-1.151L341.855,193.213z"/>
		</g>
		<path style="fill:#124072;" d="M361.85,207.761h-44.733c-1.079,0-1.953-0.874-1.953-1.953v-28.717
			c0-1.079,0.874-1.953,1.953-1.953h44.733c1.079,0,1.953,0.874,1.953,1.953v28.717C363.803,206.886,362.928,207.761,361.85,207.761
			z"/>
		<circle style="fill:#F9EFE8;" cx="339.483" cy="191.449" r="3.171"/>
		<g>
			<path style="fill:#184785;" d="M342.923,130.587c0.671-0.057,2.172-4.092,2.172-4.092l-1.473,0.949c0,0-0.534,1.484-0.74,2.44
				S342.625,130.612,342.923,130.587z"/>
			<path style="fill:#F7BBA6;" d="M343.594,126.212c-1.176,11.551,0.491,16.367,0.491,16.367s-2.339,2.825-5.098,2.825
				s-4.8-2.227-4.8-2.227v-10.674L343.594,126.212z"/>
			<path style="fill:#F7BBA6;" d="M336.285,135.715c4.374,0.074,7.267-4.124,7.338-8.271l0.112-6.577
				c0.07-4.147-3.094-7.564-7.068-7.632l0,0c-3.974-0.067-7.252,3.24-7.323,7.388l0.065,6.559
				C329.338,131.329,331.911,135.641,336.285,135.715z"/>
			<path style="fill:#DEAC93;" d="M341.445,132.322c-0.058,0.094-1.266,4.657-7.255,3.916l0.008-0.914
				c0.059,0.021,1.106,0.307,2.987-0.255C339.253,134.452,340.375,133.663,341.445,132.322z"/>
			<path style="fill:#184785;" d="M336.728,123.713c-0.005,0.312,0.243,0.569,0.555,0.574c0.312,0.005,0.569-0.243,0.574-0.555
				c0.005-0.312-0.243-0.569-0.555-0.574C336.991,123.153,336.734,123.401,336.728,123.713z"/>
			<path style="fill:#184785;" d="M330.67,123.683c-0.005,0.312,0.243,0.569,0.555,0.574s0.569-0.243,0.574-0.555
				c0.005-0.312-0.243-0.569-0.555-0.574S330.675,123.371,330.67,123.683z"/>
			<path style="fill:#F7BBA6;" d="M345.882,125.936c-0.57,1.177-1.752,1.782-2.64,1.352c-1.651-0.799-0.988-2.089-0.418-3.265
				c0.57-1.177,1.368-1.564,2.481-0.996C346.184,123.475,346.451,124.76,345.882,125.936z"/>
			<path style="fill:#DEAC93;" d="M345.48,124.725c-0.01-0.324-0.11-0.722-0.401-0.907c-0.252-0.161-0.664-0.065-0.741,0.246
				c-0.015,0.061,0.084,0.099,0.106,0.038c0.054-0.147,0.209-0.213,0.359-0.181c0.158,0.034,0.274,0.175,0.338,0.316
				c0.135,0.301,0.127,0.668,0.04,0.981c-0.088,0.318-0.278,0.628-0.544,0.828c-0.123,0.093-0.272,0.16-0.426,0.176
				c-0.132,0.013-0.307-0.015-0.414-0.095c-0.044-0.033-0.127,0.003-0.1,0.065c0.058,0.133,0.152,0.24,0.297,0.273
				c0.153,0.035,0.323,0.008,0.469-0.044c0.33-0.117,0.586-0.386,0.76-0.683C345.4,125.433,345.491,125.077,345.48,124.725z"/>
			<path style="fill:#184785;" d="M332.417,116.006c0,0,4.084,1.865,8.1,1.742c2.711-0.083,1.46,3.066,1.553,3.807
				c0.093,0.741,0.735,2.264,0.735,2.264l0.031,0.165c0.059,0.318,0.516,0.314,0.57-0.005l0.138-0.824l0.049-0.098
				c0.198-0.161,0.465-0.274,0.72-0.27c0.432,0.008,1.332,0.118,1.734,1.137c0,0,0.973-3.384,0.933-5.888
				c-0.046-2.939-2.403-6.962-8.031-7.293C331.075,110.28,332.417,116.006,332.417,116.006z"/>
			<path style="fill:#184785;" d="M334.965,112.225c0,0-1.866-0.111-4.416,1.289c-3.459,1.899-1.121,9.843-1.121,9.843
				s0.498-5.856,1.495-6.728c0.997-0.872,2.866-0.374,2.866-0.374L334.965,112.225z"/>
			<path style="fill:#184785;" d="M333.359,130.545c0.067-0.022,0.132-0.004,0.201,0.001c0.065,0.004,0.128-0.009,0.193-0.008
				c0.126,0.001,0.251,0.001,0.375-0.018c0.26-0.039,0.516-0.113,0.749-0.235c0.462-0.242,0.856-0.663,1.041-1.154
				c0.051-0.134,0.248-0.084,0.217,0.06c-0.133,0.608-0.545,1.093-1.083,1.393c-0.265,0.148-0.556,0.253-0.858,0.287
				c-0.155,0.018-0.313,0.022-0.468,0.001c-0.071-0.01-0.134-0.037-0.202-0.057c-0.075-0.022-0.156-0.039-0.21-0.099
				C333.261,130.657,333.284,130.57,333.359,130.545z"/>
			<path style="fill:#573B2D;" d="M332.925,113.035c0.113,0.223,0.254,0.432,0.405,0.631c0.15,0.201,0.314,0.391,0.487,0.574
				c0.172,0.184,0.359,0.352,0.547,0.519c0.193,0.162,0.392,0.316,0.599,0.459c0.413,0.289,0.856,0.534,1.315,0.745
				c0.46,0.209,0.939,0.37,1.425,0.503c0.487,0.133,0.985,0.217,1.484,0.279c0.25,0.025,0.5,0.052,0.752,0.059
				c0.126,0.005,0.251,0.016,0.376,0.015l0.377-0.001c1.004-0.008,2.003-0.139,2.977-0.357c-0.989,0.139-1.984,0.214-2.977,0.195
				c-0.991-0.022-1.982-0.133-2.936-0.391c-0.955-0.249-1.874-0.642-2.703-1.181c-0.415-0.269-0.806-0.574-1.165-0.916
				C333.526,113.83,333.195,113.455,332.925,113.035z"/>
			<path style="fill:#184785;" d="M335.639,121.346c0.093-0.119,0.199-0.174,0.353-0.209c0.129-0.03,0.263-0.047,0.395-0.061
				c0.224-0.023,0.449-0.029,0.674-0.019c0.461,0.021,1.012,0.07,1.365,0.366c0.125,0.105,0.019,0.273-0.129,0.283
				c-0.215,0.016-0.43-0.018-0.642-0.052c-0.203-0.032-0.41-0.045-0.616-0.046l-0.9,0.086c-0.155,0.025-0.264,0.026-0.409-0.034
				C335.613,121.611,335.566,121.44,335.639,121.346z"/>
			<path style="fill:#184785;" d="M332.164,126.208c0.087-0.649,0.479-1.213,0.705-1.816c0.266-0.709,0.353-1.432,0.433-2.18
				c0.012-0.113,0.164-0.113,0.176,0c0.124,1.155-0.328,2.217-0.782,3.247c-0.205,0.466-0.382,1.069-0.094,1.544
				c0.136,0.224,0.372,0.352,0.63,0.375c0.269,0.024,0.49-0.119,0.748-0.133c0.148-0.008,0.183,0.167,0.109,0.263
				c-0.311,0.4-1.109,0.314-1.466,0.036C332.226,127.234,332.099,126.689,332.164,126.208z"/>
			<path style="fill:#184785;" d="M330.473,121.03c0.302-0.127,0.653-0.097,0.969-0.049c0.143,0.022,0.284,0.054,0.422,0.097
				c0.167,0.053,0.363,0.11,0.437,0.286c0.046,0.11,0.012,0.216-0.105,0.258c-0.163,0.059-0.311-0.012-0.467-0.053
				c-0.065-0.017-0.131-0.032-0.198-0.045c-0.029-0.005-0.057-0.01-0.086-0.015c-0.013-0.002-0.017-0.003-0.022-0.003
				c-0.017-0.002-0.034-0.004-0.052-0.006c-0.279-0.029-0.557,0.008-0.836-0.006c-0.117-0.006-0.218-0.086-0.233-0.205
				C330.289,121.163,330.361,121.077,330.473,121.03z"/>
		</g>
	</g>
</g>
<g id="TEXTS">
	<text transform="matrix(1 0 0 1 232.6994 118.7456)" style="fill:#FFFFFF; font-family:'Montserrat-Bold'; font-size:18.1202px;">API</text>
</g>
</svg>
