<svg id="visual" viewBox="0 0 900 600" width="900" height="600" xmlns="http://www.w3.org/2000/svg" xmlns:xlink="http://www.w3.org/1999/xlink" version="1.1"><path d="M0 133L13.7 128C27.3 123 54.7 113 82 99C109.3 85 136.7 67 163.8 66C191 65 218 81 245.2 84C272.3 87 299.7 77 327 82C354.3 87 381.7 107 409 107C436.3 107 463.7 87 491 83C518.3 79 545.7 91 573 98C600.3 105 627.7 107 654.8 99C682 91 709 73 736.2 73C763.3 73 790.7 91 818 100C845.3 109 872.7 109 886.3 109L900 109L900 0L886.3 0C872.7 0 845.3 0 818 0C790.7 0 763.3 0 736.2 0C709 0 682 0 654.8 0C627.7 0 600.3 0 573 0C545.7 0 518.3 0 491 0C463.7 0 436.3 0 409 0C381.7 0 354.3 0 327 0C299.7 0 272.3 0 245.2 0C218 0 191 0 163.8 0C136.7 0 109.3 0 82 0C54.7 0 27.3 0 13.7 0L0 0Z" fill="#6198ff"></path><path d="M0 355L13.7 353C27.3 351 54.7 347 82 331C109.3 315 136.7 287 163.8 275C191 263 218 267 245.2 274C272.3 281 299.7 291 327 302C354.3 313 381.7 325 409 309C436.3 293 463.7 249 491 247C518.3 245 545.7 285 573 313C600.3 341 627.7 357 654.8 329C682 301 709 229 736.2 205C763.3 181 790.7 205 818 222C845.3 239 872.7 249 886.3 254L900 259L900 107L886.3 107C872.7 107 845.3 107 818 98C790.7 89 763.3 71 736.2 71C709 71 682 89 654.8 97C627.7 105 600.3 103 573 96C545.7 89 518.3 77 491 81C463.7 85 436.3 105 409 105C381.7 105 354.3 85 327 80C299.7 75 272.3 85 245.2 82C218 79 191 63 163.8 64C136.7 65 109.3 83 82 97C54.7 111 27.3 121 13.7 126L0 131Z" fill="#3c80ff"></path><path d="M0 403L13.7 407C27.3 411 54.7 419 82 417C109.3 415 136.7 403 163.8 396C191 389 218 387 245.2 386C272.3 385 299.7 385 327 385C354.3 385 381.7 385 409 377C436.3 369 463.7 353 491 363C518.3 373 545.7 409 573 424C600.3 439 627.7 433 654.8 399C682 365 709 303 736.2 279C763.3 255 790.7 269 818 289C845.3 309 872.7 335 886.3 348L900 361L900 257L886.3 252C872.7 247 845.3 237 818 220C790.7 203 763.3 179 736.2 203C709 227 682 299 654.8 327C627.7 355 600.3 339 573 311C545.7 283 518.3 243 491 245C463.7 247 436.3 291 409 307C381.7 323 354.3 311 327 300C299.7 289 272.3 279 245.2 272C218 265 191 261 163.8 273C136.7 285 109.3 313 82 329C54.7 345 27.3 349 13.7 351L0 353Z" fill="#0066ff"></path><path d="M0 553L13.7 548C27.3 543 54.7 533 82 533C109.3 533 136.7 543 163.8 545C191 547 218 541 245.2 543C272.3 545 299.7 555 327 554C354.3 553 381.7 541 409 535C436.3 529 463.7 529 491 530C518.3 531 545.7 533 573 538C600.3 543 627.7 551 654.8 548C682 545 709 531 736.2 522C763.3 513 790.7 509 818 513C845.3 517 872.7 529 886.3 535L900 541L900 359L886.3 346C872.7 333 845.3 307 818 287C790.7 267 763.3 253 736.2 277C709 301 682 363 654.8 397C627.7 431 600.3 437 573 422C545.7 407 518.3 371 491 361C463.7 351 436.3 367 409 375C381.7 383 354.3 383 327 383C299.7 383 272.3 383 245.2 384C218 385 191 387 163.8 394C136.7 401 109.3 413 82 415C54.7 417 27.3 409 13.7 405L0 401Z" fill="#0059dd"></path><path d="M0 601L13.7 601C27.3 601 54.7 601 82 601C109.3 601 136.7 601 163.8 601C191 601 218 601 245.2 601C272.3 601 299.7 601 327 601C354.3 601 381.7 601 409 601C436.3 601 463.7 601 491 601C518.3 601 545.7 601 573 601C600.3 601 627.7 601 654.8 601C682 601 709 601 736.2 601C763.3 601 790.7 601 818 601C845.3 601 872.7 601 886.3 601L900 601L900 539L886.3 533C872.7 527 845.3 515 818 511C790.7 507 763.3 511 736.2 520C709 529 682 543 654.8 546C627.7 549 600.3 541 573 536C545.7 531 518.3 529 491 528C463.7 527 436.3 527 409 533C381.7 539 354.3 551 327 552C299.7 553 272.3 543 245.2 541C218 539 191 545 163.8 543C136.7 541 109.3 531 82 531C54.7 531 27.3 541 13.7 546L0 551Z" fill="#004cbb"></path></svg>