<svg xmlns="http://www.w3.org/2000/svg" width="46.602" height="28.145" viewBox="0 0 46.602 28.145">
  <g id="Group_4980" data-name="Group 4980" transform="translate(-3772.19 597.56)">
    <path id="Path_5194" data-name="Path 5194" d="M13.191,21.222a4.77,4.77,0,0,0,.171,1.393,8.37,8.37,0,0,0,.5,1.127.685.685,0,0,1,.109.36.624.624,0,0,1-.294.47l-.977.657a.736.736,0,0,1-.4.141.711.711,0,0,1-.465-.219,4.839,4.839,0,0,1-.558-.736c-.155-.266-.31-.563-.481-.923a5.7,5.7,0,0,1-4.557,2.16,4.222,4.222,0,0,1-3.1-1.127,4.044,4.044,0,0,1-1.147-3.006A4.046,4.046,0,0,1,3.4,18.3a5.6,5.6,0,0,1,3.8-1.221,12.08,12.08,0,0,1,1.643.125c.573.079,1.162.2,1.783.345V16.4a3.493,3.493,0,0,0-.728-2.5,3.543,3.543,0,0,0-2.526-.72,6.943,6.943,0,0,0-1.674.2,12.2,12.2,0,0,0-1.674.532,4.5,4.5,0,0,1-.543.2.954.954,0,0,1-.248.047c-.217,0-.325-.156-.325-.485V12.91a1,1,0,0,1,.109-.548,1.168,1.168,0,0,1,.434-.329,8.9,8.9,0,0,1,1.953-.7,9.288,9.288,0,0,1,2.417-.3A5.626,5.626,0,0,1,11.875,12.3a5.212,5.212,0,0,1,1.286,3.85v5.072h.029ZM6.9,23.6a4.985,4.985,0,0,0,1.6-.282,3.445,3.445,0,0,0,1.473-1,2.5,2.5,0,0,0,.527-1,5.665,5.665,0,0,0,.155-1.362V19.3a12.69,12.69,0,0,0-1.426-.266,11.663,11.663,0,0,0-1.457-.094,3.55,3.55,0,0,0-2.31.626,2.19,2.19,0,0,0-.759,1.8,2.2,2.2,0,0,0,.574,1.659A2.134,2.134,0,0,0,6.9,23.6Zm12.446,1.691a.861.861,0,0,1-.589-.156,1.278,1.278,0,0,1-.325-.611l-3.643-12.1a2.754,2.754,0,0,1-.14-.626.342.342,0,0,1,.372-.391h1.519a.855.855,0,0,1,.6.156,1.283,1.283,0,0,1,.31.611l2.6,10.363,2.417-10.363a1.111,1.111,0,0,1,.294-.611,1.057,1.057,0,0,1,.62-.156h1.24a.928.928,0,0,1,.62.156,1.057,1.057,0,0,1,.294.611l2.449,10.488,2.682-10.488a1.361,1.361,0,0,1,.31-.611,1,1,0,0,1,.6-.156h1.442a.346.346,0,0,1,.387.391,1.571,1.571,0,0,1-.031.25,2.226,2.226,0,0,1-.109.391l-3.735,12.1a1.214,1.214,0,0,1-.325.611.981.981,0,0,1-.589.156H27.294a.928.928,0,0,1-.62-.156,1.112,1.112,0,0,1-.294-.626l-2.4-10.1L21.592,24.51a1.237,1.237,0,0,1-.294.626.954.954,0,0,1-.62.156Zm19.916.422a10.18,10.18,0,0,1-2.386-.282,6.984,6.984,0,0,1-1.783-.626,1.125,1.125,0,0,1-.481-.438,1.11,1.11,0,0,1-.093-.438v-.8c0-.329.124-.485.356-.485a.869.869,0,0,1,.279.047c.093.031.232.094.387.156a8.358,8.358,0,0,0,1.7.548,9.22,9.22,0,0,0,1.845.187,4.147,4.147,0,0,0,2.263-.516,1.69,1.69,0,0,0,.806-1.487,1.537,1.537,0,0,0-.418-1.1,3.879,3.879,0,0,0-1.565-.814l-2.248-.7a4.724,4.724,0,0,1-2.48-1.6,3.75,3.75,0,0,1-.775-2.27,3.517,3.517,0,0,1,.418-1.738,4.02,4.02,0,0,1,1.116-1.283,4.893,4.893,0,0,1,1.612-.814A6.744,6.744,0,0,1,39.772,11a7.779,7.779,0,0,1,1.039.062c.356.047.682.11,1.008.172.31.079.6.156.883.25a3.392,3.392,0,0,1,.651.282,1.343,1.343,0,0,1,.465.391.848.848,0,0,1,.14.516v.736c0,.329-.124.5-.356.5a1.6,1.6,0,0,1-.589-.187,7.035,7.035,0,0,0-2.976-.611,3.971,3.971,0,0,0-2.061.438,1.515,1.515,0,0,0-.728,1.393,1.489,1.489,0,0,0,.465,1.112,4.615,4.615,0,0,0,1.7.861l2.2.7a4.707,4.707,0,0,1,2.4,1.5,3.571,3.571,0,0,1,.713,2.191,4.062,4.062,0,0,1-.4,1.816A4.209,4.209,0,0,1,43.2,24.509a4.991,4.991,0,0,1-1.72.877A7.321,7.321,0,0,1,39.26,25.714Z" transform="translate(3772.133 -608.56)" fill="#fff"/>
    <path id="Path_5195" data-name="Path 5195" d="M42.132,33.849c-5.1,3.8-12.508,5.823-18.878,5.823A33.963,33.963,0,0,1,.206,30.8c-.481-.438-.047-1.033.527-.688A46.131,46.131,0,0,0,23.8,36.291a45.612,45.612,0,0,0,17.591-3.632C42.24,32.268,42.968,33.222,42.132,33.849Zm2.123-2.442c-.651-.846-4.309-.407-5.967-.2-.5.062-.574-.376-.124-.7,2.914-2.066,7.7-1.472,8.261-.783.558.7-.155,5.542-2.882,7.858-.418.36-.821.172-.636-.3C43.527,35.727,44.906,32.236,44.255,31.407Z" transform="translate(3772.191 -609.087)" fill="#f90"/>
  </g>
</svg>
