<svg xmlns="http://www.w3.org/2000/svg" width="34.578" height="34.973" viewBox="0 0 34.578 34.973">
  <path id="icons8-chatgpt" d="M38.516,21.955a8.6,8.6,0,0,0-2.42-4.049,7.705,7.705,0,0,0-.406-6.859,8.65,8.65,0,0,0-9.985-3.966A7.676,7.676,0,0,0,19.567,4a8.678,8.678,0,0,0-8.424,6.654c-.008,0-.016,0-.024,0A7.633,7.633,0,0,0,5.4,14.44,8.652,8.652,0,0,0,6.959,25.07a7.69,7.69,0,0,0,.4,6.856,8.617,8.617,0,0,0,5.264,4.039,8.723,8.723,0,0,0,2.257.3,8.553,8.553,0,0,0,2.462-.375,7.654,7.654,0,0,0,6.139,3.083,8.68,8.68,0,0,0,8.427-6.664,7.669,7.669,0,0,0,5.738-3.776A8.613,8.613,0,0,0,38.516,21.955ZM29.995,8.616a6.955,6.955,0,0,1,4.253,3.263,6.036,6.036,0,0,1,.474,4.969c-.082-.052-.161-.109-.245-.158l-7.635-4.408a.839.839,0,0,0-.841,0l-8.492,5.03-.043-3.836,7.214-4.164A6.965,6.965,0,0,1,29.995,8.616ZM25.471,19.151l.052,4.583L21.579,26.07l-4-2.247-.052-4.583L21.475,16.9ZM12.562,12.67a7.012,7.012,0,0,1,7-7,6.016,6.016,0,0,1,4.545,2.072c-.087.047-.178.086-.265.136l-7.636,4.408a.836.836,0,0,0-.416.73l.111,9.868L12.562,21V12.67ZM6.145,20.588a6.962,6.962,0,0,1,.7-5.315,5.97,5.97,0,0,1,4.067-2.893c0,.1-.015.192-.015.29v8.817a.834.834,0,0,0,.425.726l8.6,4.838-3.3,1.955L9.409,24.841A6.957,6.957,0,0,1,6.145,20.588Zm6.913,13.769a6.955,6.955,0,0,1-4.253-3.263,6.025,6.025,0,0,1-.477-4.971c.084.052.163.111.249.161l7.635,4.408a.832.832,0,0,0,.841,0l8.492-5.03.043,3.836-7.214,4.164A6.951,6.951,0,0,1,13.058,34.357ZM30.49,30.3a7.012,7.012,0,0,1-7,7,6,6,0,0,1-4.546-2.077c.087-.047.18-.082.266-.132l7.636-4.408a.836.836,0,0,0,.416-.73l-.112-9.867,3.343,1.88Zm5.717-2.6a6.011,6.011,0,0,1-4.067,2.9c0-.1.015-.2.015-.3V21.487a.834.834,0,0,0-.425-.726l-8.6-4.838,3.3-1.955,7.213,4.165A7,7,0,0,1,36.207,27.7Z" transform="translate(-4.238 -4)" fill="#fff"/>
</svg>
