<svg xmlns="http://www.w3.org/2000/svg" width="33.15" height="37.595" viewBox="0 0 33.15 37.595">
  <path id="Datadog_idcsmJlrma_0" d="M12.81,10.125c1.3-.886,2.974-.537,2.693-.271-.534.509.177.358.253,1.3a1.615,1.615,0,0,1-.364,1.289,8.242,8.242,0,0,0-1.493.345,7.606,7.606,0,0,0-.924.369,2.195,2.195,0,0,1-.238-.181,1.794,1.794,0,0,1,.072-2.849M20.572,15.6a6.817,6.817,0,0,1,2.3-.644,4.418,4.418,0,0,1,1.422-.008c.315.174.315.711.1,1.207-.314.721-.757,1.518-1.259,1.583a3.549,3.549,0,0,1-2.478-1,.725.725,0,0,1-.083-1.142m1.495-7.022c1.21.563,1.051,1.633,1.085,2.262a1.8,1.8,0,0,1-.009.386,1.634,1.634,0,0,0-.852-.139,3.1,3.1,0,0,0-.358.038,2.53,2.53,0,0,1-.957-1.2c-.022-.046-.04-.087-.056-.127-.007-.018-.015-.038-.022-.054s0-.016-.008-.024c-.134-.425-.044-.51.012-.641s.277-.244-.046-.356a.667.667,0,0,0-.1-.024,1.245,1.245,0,0,1,1.312-.118m-6.594,12.8a18.1,18.1,0,0,1-3.241-2.7c-.1-.075-.083-.406-.083-.406a18.2,18.2,0,0,0,5.074,2.711,4.139,4.139,0,0,0,3.183-.271,8.147,8.147,0,0,0,2.447-2.155l.11.191a4.9,4.9,0,0,1-.422.993,2.694,2.694,0,0,0,.727.264l1.933-.3a5.888,5.888,0,0,0,.661-4.648A13.5,13.5,0,0,0,23.869,12c-.4-.381.066-1.852-.719-3.457-.83-1.7-2.993-3.468-3.932-4.238a10.486,10.486,0,0,1,2.776,1.849c.075-.1.105-.614.174-.745A5.465,5.465,0,0,1,21.433,2.5a4.838,4.838,0,0,0-.4-1.663A2.662,2.662,0,0,1,21.9,2.306a6.011,6.011,0,0,0,1.24,2.705C24.248,6.4,25.252,7.107,25.76,6.6c.607-.615-.616-3.366-2.179-4.9C21.756-.1,21.279.133,20.209.516c-.854.3-1.316,2.73-3.542,2.681-.377-.044-1.348-.068-1.829-.063.25-.349.465-.619.465-.619A11.436,11.436,0,0,0,13.92,3.2l-.049-.073a4.045,4.045,0,0,1,.445-.738,12.541,12.541,0,0,0-1.141.788,1.722,1.722,0,0,1,.474-.881,3.517,3.517,0,0,0-1.714,1.192,11.746,11.746,0,0,0-2.223.879A3.861,3.861,0,0,1,7,2.64,1.74,1.74,0,0,0,4.771,2.2c-1.283.53-2.906,1.257-2.906,1.257s.529-.022,1.081,0a13.877,13.877,0,0,0-1.48.679s.353-.012.79,0a7.382,7.382,0,0,1-.755.56A10.757,10.757,0,0,0,.25,5.769a7.479,7.479,0,0,1,.89-.333c-.294.674-.878,1.171-.77,2a6.585,6.585,0,0,0,2.223,3.259c.1.083,1.735,1.592,2.965.973s1.715-1.171,1.917-2.016c.238-.971.1-1.706-.406-3.814-.167-.7-.6-2.129-.814-2.814L6.3,2.986a34.816,34.816,0,0,1,1.847,4.59c.648,2.344.445,3.533.149,3.969a3.4,3.4,0,0,1-4.226.76,8.669,8.669,0,0,0,.6,4.2,5.373,5.373,0,0,0,.322,1.839,2.2,2.2,0,0,1,.238-.83,5.422,5.422,0,0,0,.373,1.4,2.635,2.635,0,0,1,.127-.874,5.766,5.766,0,0,0,.553.694,3.826,3.826,0,0,0,.586,1.181,3.237,3.237,0,0,1-.029-.747,4.987,4.987,0,0,1,1.215,3.285c.268,2.829-4.46,5.078-5.376,6.847-.694,1.048-1.111,2.706.065,3.683,2.843,2.361,1.751,3.01,3.174,4.048a3.9,3.9,0,0,0,5.226-.372,4.75,4.75,0,0,0,.43-4.557,7.409,7.409,0,0,0-2.379-3.676,4.942,4.942,0,0,0-3.228-.77l.088-.1a5.291,5.291,0,0,1,3.833.544A6.847,6.847,0,0,1,12.7,32.129c.637-.091.727-.132,1.311-.215L12.693,21.689ZM16.232,34.2l-.151-1.418,2.954-4.506,3.354.98,2.884-4.816,3.457,2.28,2.626-5.508.934,10.031ZM32.324,19.155,21.769,21.068a5.255,5.255,0,0,1-1.219,1.083,3.792,3.792,0,0,1-3.013.275,6.44,6.44,0,0,1-1.206-.385l-2.576.353,1.564,13.047L33.4,32.182Z" transform="translate(-0.25 -0.248)" fill="#fff"/>
</svg>
