<svg xmlns="http://www.w3.org/2000/svg" xmlns:xlink="http://www.w3.org/1999/xlink" width="35" height="31.345" viewBox="0 0 35 31.345">
  <defs>
    <linearGradient id="linear-gradient" x1="0.5" x2="0.5" y2="0.998" gradientUnits="objectBoundingBox">
      <stop offset="0" stop-color="#4387fd"/>
      <stop offset="1" stop-color="#4683ea"/>
    </linearGradient>
  </defs>
  <g id="google-bigquery-logo-1_1_" data-name="google-bigquery-logo-1 (1)" transform="translate(0.001 -7.033)">
    <path id="Path_5278" data-name="Path 5278" d="M7.6,36.614.421,24.182a3.144,3.144,0,0,1,0-3.144L7.6,8.605a3.145,3.145,0,0,1,2.723-1.572H24.677A3.144,3.144,0,0,1,27.4,8.605l7.178,12.432a3.144,3.144,0,0,1,0,3.145L27.4,36.614a3.145,3.145,0,0,1-2.723,1.572H10.322A3.144,3.144,0,0,1,7.6,36.614Z" transform="translate(0)" fill="url(#linear-gradient)"/>
    <path id="Path_5279" data-name="Path 5279" d="M64.062,55.2,53.506,44.642,48.96,43.425l-4.083,1.518L43.3,49.051l1.268,4.574L55.762,64.819l2.375-.106Z" transform="translate(-31.461 -26.441)" opacity="0.07"/>
    <g id="Group_4990" data-name="Group 4990" transform="translate(11.157 16.267)">
      <path id="Path_5280" data-name="Path 5280" d="M47.147,40.8a6.342,6.342,0,1,0,6.342,6.343A6.343,6.343,0,0,0,47.147,40.8m0,11.155a4.812,4.812,0,1,1,4.812-4.812,4.813,4.813,0,0,1-4.812,4.812" transform="translate(-40.805 -40.804)" fill="#fff"/>
      <path id="Path_5281" data-name="Path 5281" d="M52.99,58.688v1.971a3.5,3.5,0,0,0,1.2,1.224v-3.2Zm2.375-1.662v5.308a3.243,3.243,0,0,0,1.2.008V57.026Zm2.486,2.481v2.341a3.5,3.5,0,0,0,1.2-1.285V59.507Zm2.714,3.332-.657.658a.3.3,0,0,0,0,.42L62.4,66.409a.3.3,0,0,0,.42,0l.657-.657a.3.3,0,0,0,0-.42L60.984,62.84a.3.3,0,0,0-.42,0" transform="translate(-49.658 -52.59)" fill="#fff"/>
    </g>
  </g>
</svg>
