<svg xmlns="http://www.w3.org/2000/svg" width="50" height="49.117" viewBox="0 0 50 49.117">
  <g id="Group_4989" data-name="Group 4989" transform="translate(-1181 -879)">
    <path id="Path_5215" data-name="Path 5215" d="M52.966,33.127,48.583,13.839a2.906,2.906,0,0,0-1.561-1.972L29.287,3.293a2.81,2.81,0,0,0-2.5,0L9.051,11.867A2.9,2.9,0,0,0,7.49,13.833L3.107,33.127a2.9,2.9,0,0,0,.551,2.427l12.279,15.47a2.9,2.9,0,0,0,2.26,1.092H37.879a2.9,2.9,0,0,0,2.26-1.092l12.276-15.47a2.893,2.893,0,0,0,.551-2.427Z" transform="translate(1177.963 876)" fill="#fff"/>
    <g id="Group_4988" data-name="Group 4988" transform="translate(1181 879)">
      <path id="Path_5214" data-name="Path 5214" d="M26.628,24.447a.78.78,0,0,1,.143.593l-.33,1.445a.714.714,0,0,1-.381.505l-1.338.627a.665.665,0,0,1-.625,0l-1.338-.627a.714.714,0,0,1-.381-.505l-.33-1.445a.785.785,0,0,1,.143-.593l.938-1.167A.673.673,0,0,1,23.684,23h1.459a.674.674,0,0,1,.557.286Z" transform="translate(0.699 0.929)" fill="#0277bd"/>
      <path id="Path_5215-2" data-name="Path 5215" d="M29.684,17.754l.057.448c.16,1.241.276,2.494.39,3.735.046.494.093.978.126,1.472a.477.477,0,0,0,.757.357q.585-.428,1.205-.857c1.032-.7,2.053-1.4,3.108-2.08l.39-.241A11.28,11.28,0,0,0,29.684,17.754Zm0,0,.057.448c.16,1.241.276,2.494.39,3.735.046.494.093.978.126,1.472a.477.477,0,0,0,.757.357q.585-.428,1.205-.857c1.032-.7,2.053-1.4,3.108-2.08l.39-.241A11.28,11.28,0,0,0,29.684,17.754Zm0,0,.057.448c.16,1.241.276,2.494.39,3.735.046.494.093.978.126,1.472a.477.477,0,0,0,.757.357q.585-.428,1.205-.857c1.032-.7,2.053-1.4,3.108-2.08l.39-.241A11.28,11.28,0,0,0,29.684,17.754Zm0,0,.057.448c.16,1.241.276,2.494.39,3.735.046.494.093.978.126,1.472a.477.477,0,0,0,.757.357q.585-.428,1.205-.857c1.032-.7,2.053-1.4,3.108-2.08l.39-.241A11.28,11.28,0,0,0,29.684,17.754Zm0,0,.057.448c.16,1.241.276,2.494.39,3.735.046.494.093.978.126,1.472a.477.477,0,0,0,.757.357q.585-.428,1.205-.857c1.032-.7,2.053-1.4,3.108-2.08l.39-.241A11.28,11.28,0,0,0,29.684,17.754Zm8.139,5.39-.31.334c-.857.92-1.743,1.8-2.627,2.69-.563.571-1.171,1.127-1.755,1.689.78.2,1.561.4,2.34.631,1.205.344,2.4.678,3.591,1.068l.428.143c.011-.184.011-.38.011-.571a11.365,11.365,0,0,0-1.668-5.984Zm0,0-.31.334c-.857.92-1.743,1.8-2.627,2.69-.563.571-1.171,1.127-1.755,1.689.78.2,1.561.4,2.34.631,1.205.344,2.4.678,3.591,1.068l.428.143c.011-.184.011-.38.011-.571a11.365,11.365,0,0,0-1.668-5.984Zm-8.139-5.39.057.448c.16,1.241.276,2.494.39,3.735.046.494.093.978.126,1.472a.477.477,0,0,0,.757.357q.585-.428,1.205-.857c1.032-.7,2.053-1.4,3.108-2.08l.39-.241A11.28,11.28,0,0,0,29.684,17.754Zm0,0,.057.448c.16,1.241.276,2.494.39,3.735.046.494.093.978.126,1.472a.477.477,0,0,0,.757.357q.585-.428,1.205-.857c1.032-.7,2.053-1.4,3.108-2.08l.39-.241A11.28,11.28,0,0,0,29.684,17.754Zm8.752,15.183c-1.251-.08-2.49-.2-3.741-.31-.54-.046-1.067-.1-1.606-.161a.467.467,0,0,0-.493.631c.2.517.378,1.035.563,1.571.4,1.172.815,2.356,1.192,3.551l.126.414a11.5,11.5,0,0,0,4.359-5.667Zm-.608-9.793-.31.334c-.857.92-1.743,1.8-2.627,2.69-.563.571-1.171,1.127-1.755,1.689.78.2,1.561.4,2.34.631,1.205.344,2.4.678,3.591,1.068l.428.143c.011-.184.011-.38.011-.571a11.365,11.365,0,0,0-1.673-5.984Zm0,0-.31.334c-.857.92-1.743,1.8-2.627,2.69-.563.571-1.171,1.127-1.755,1.689.78.2,1.561.4,2.34.631,1.205.344,2.4.678,3.591,1.068l.428.143c.011-.184.011-.38.011-.571a11.365,11.365,0,0,0-1.673-5.984Zm.608,9.793c-1.251-.08-2.49-.2-3.741-.31-.54-.046-1.067-.1-1.606-.161a.467.467,0,0,0-.493.631c.2.517.378,1.035.563,1.571.4,1.172.815,2.356,1.192,3.551l.126.414a11.5,11.5,0,0,0,4.359-5.667ZM29.684,17.754l.057.448c.16,1.241.276,2.494.39,3.735.046.494.093.978.126,1.472a.477.477,0,0,0,.757.357q.585-.428,1.205-.857c1.032-.7,2.053-1.4,3.108-2.08l.39-.241A11.28,11.28,0,0,0,29.684,17.754Zm0,0,.057.448c.16,1.241.276,2.494.39,3.735.046.494.093.978.126,1.472a.477.477,0,0,0,.757.357q.585-.428,1.205-.857c1.032-.7,2.053-1.4,3.108-2.08l.39-.241A11.28,11.28,0,0,0,29.684,17.754Zm8.752,15.183c-1.251-.08-2.49-.2-3.741-.31-.54-.046-1.067-.1-1.606-.161a.467.467,0,0,0-.493.631c.2.517.378,1.035.563,1.571.4,1.172.815,2.356,1.192,3.551l.126.414a11.5,11.5,0,0,0,4.359-5.667Zm-.608-9.793-.31.334c-.857.92-1.743,1.8-2.627,2.69-.563.571-1.171,1.127-1.755,1.689.78.2,1.561.4,2.34.631,1.205.344,2.4.678,3.591,1.068l.428.143c.011-.184.011-.38.011-.571a11.365,11.365,0,0,0-1.673-5.984Zm0,0-.31.334c-.857.92-1.743,1.8-2.627,2.69-.563.571-1.171,1.127-1.755,1.689.78.2,1.561.4,2.34.631,1.205.344,2.4.678,3.591,1.068l.428.143c.011-.184.011-.38.011-.571a11.365,11.365,0,0,0-1.673-5.984Zm.608,9.793c-1.251-.08-2.49-.2-3.741-.31-.54-.046-1.067-.1-1.606-.161a.467.467,0,0,0-.493.631c.2.517.378,1.035.563,1.571.4,1.172.815,2.356,1.192,3.551l.126.414a11.5,11.5,0,0,0,4.359-5.667ZM29.684,17.754l.057.448c.16,1.241.276,2.494.39,3.735.046.494.093.978.126,1.472a.477.477,0,0,0,.757.357q.585-.428,1.205-.857c1.032-.7,2.053-1.4,3.108-2.08l.39-.241A11.28,11.28,0,0,0,29.684,17.754Zm1.553,21.884c-.665-1.058-1.285-2.149-1.9-3.23-.276-.471-.54-.942-.792-1.428a.475.475,0,0,0-.838,0q-.4.741-.825,1.448c-.631,1.081-1.262,2.16-1.928,3.218l-.286.46a11.29,11.29,0,0,0,3.372.505A11.149,11.149,0,0,0,31.5,40.07ZM29.684,17.754l.057.448c.16,1.241.276,2.494.39,3.735.046.494.093.978.126,1.472a.477.477,0,0,0,.757.357q.585-.428,1.205-.857c1.032-.7,2.053-1.4,3.108-2.08l.39-.241A11.28,11.28,0,0,0,29.684,17.754Zm8.752,15.183c-1.251-.08-2.49-.2-3.741-.31-.54-.046-1.067-.1-1.606-.161a.467.467,0,0,0-.493.631c.2.517.378,1.035.563,1.571.4,1.172.815,2.356,1.192,3.551l.126.414a11.5,11.5,0,0,0,4.359-5.667Zm-.608-9.793-.31.334c-.857.92-1.743,1.8-2.627,2.69-.563.571-1.171,1.127-1.755,1.689.78.2,1.561.4,2.34.631,1.205.344,2.4.678,3.591,1.068l.428.143c.011-.184.011-.38.011-.571a11.365,11.365,0,0,0-1.673-5.984Zm0,0-.31.334c-.857.92-1.743,1.8-2.627,2.69-.563.571-1.171,1.127-1.755,1.689.78.2,1.561.4,2.34.631,1.205.344,2.4.678,3.591,1.068l.428.143c.011-.184.011-.38.011-.571a11.365,11.365,0,0,0-1.673-5.984Zm.608,9.793c-1.251-.08-2.49-.2-3.741-.31-.54-.046-1.067-.1-1.606-.161a.467.467,0,0,0-.493.631c.2.517.378,1.035.563,1.571.4,1.172.815,2.356,1.192,3.551l.126.414a11.5,11.5,0,0,0,4.359-5.667ZM29.684,17.754l.057.448c.16,1.241.276,2.494.39,3.735.046.494.093.978.126,1.472a.477.477,0,0,0,.757.357q.585-.428,1.205-.857c1.032-.7,2.053-1.4,3.108-2.08l.39-.241A11.28,11.28,0,0,0,29.684,17.754Zm1.553,21.884c-.665-1.058-1.285-2.149-1.9-3.23-.276-.471-.54-.942-.792-1.428a.475.475,0,0,0-.838,0q-.4.741-.825,1.448c-.631,1.081-1.262,2.16-1.928,3.218l-.286.46a11.29,11.29,0,0,0,3.372.505A11.149,11.149,0,0,0,31.5,40.07Zm-8.054-7.332c-.54.07-1.067.143-1.606.207-1.251.143-2.479.3-3.728.414l-.62.057a11.552,11.552,0,0,0,4.45,5.7l.16-.484c.39-1.2.8-2.367,1.228-3.551q.293-.857.62-1.713a.465.465,0,0,0-.5-.633Zm8.054,7.332c-.665-1.058-1.285-2.149-1.9-3.23-.276-.471-.54-.942-.792-1.428a.475.475,0,0,0-.838,0q-.4.741-.825,1.448c-.631,1.081-1.262,2.16-1.928,3.218l-.286.46a11.29,11.29,0,0,0,3.372.505A11.149,11.149,0,0,0,31.5,40.07ZM29.684,17.754l.057.448c.16,1.241.276,2.494.39,3.735.046.494.093.978.126,1.472a.477.477,0,0,0,.757.357q.585-.428,1.205-.857c1.032-.7,2.053-1.4,3.108-2.08l.39-.241A11.28,11.28,0,0,0,29.684,17.754Zm8.752,15.183c-1.251-.08-2.49-.2-3.741-.31-.54-.046-1.067-.1-1.606-.161a.467.467,0,0,0-.493.631c.2.517.378,1.035.563,1.571.4,1.172.815,2.356,1.192,3.551l.126.414a11.5,11.5,0,0,0,4.359-5.667Zm-.608-9.793-.31.334c-.857.92-1.743,1.8-2.627,2.69-.563.571-1.171,1.127-1.755,1.689.78.2,1.561.4,2.34.631,1.205.344,2.4.678,3.591,1.068l.428.143c.011-.184.011-.38.011-.571a11.365,11.365,0,0,0-1.673-5.984Zm0,0-.31.334c-.857.92-1.743,1.8-2.627,2.69-.563.571-1.171,1.127-1.755,1.689.78.2,1.561.4,2.34.631,1.205.344,2.4.678,3.591,1.068l.428.143c.011-.184.011-.38.011-.571a11.365,11.365,0,0,0-1.673-5.984Zm.608,9.793c-1.251-.08-2.49-.2-3.741-.31-.54-.046-1.067-.1-1.606-.161a.467.467,0,0,0-.493.631c.2.517.378,1.035.563,1.571.4,1.172.815,2.356,1.192,3.551l.126.414a11.5,11.5,0,0,0,4.359-5.667ZM29.684,17.754l.057.448c.16,1.241.276,2.494.39,3.735.046.494.093.978.126,1.472a.477.477,0,0,0,.757.357q.585-.428,1.205-.857c1.032-.7,2.053-1.4,3.108-2.08l.39-.241A11.28,11.28,0,0,0,29.684,17.754Zm1.553,21.884c-.665-1.058-1.285-2.149-1.9-3.23-.276-.471-.54-.942-.792-1.428a.475.475,0,0,0-.838,0q-.4.741-.825,1.448c-.631,1.081-1.262,2.16-1.928,3.218l-.286.46a11.29,11.29,0,0,0,3.372.505A11.149,11.149,0,0,0,31.5,40.07Zm-8.054-7.332c-.54.07-1.067.143-1.606.207-1.251.143-2.479.3-3.728.414l-.62.057a11.552,11.552,0,0,0,4.45,5.7l.16-.484c.39-1.2.8-2.367,1.228-3.551q.293-.857.62-1.713a.465.465,0,0,0-.5-.633Zm0,0c-.54.07-1.067.143-1.606.207-1.251.143-2.479.3-3.728.414l-.62.057a11.552,11.552,0,0,0,4.45,5.7l.16-.484c.39-1.2.8-2.367,1.228-3.551q.293-.857.62-1.713a.465.465,0,0,0-.5-.633Zm8.054,7.332c-.665-1.058-1.285-2.149-1.9-3.23-.276-.471-.54-.942-.792-1.428a.475.475,0,0,0-.838,0q-.4.741-.825,1.448c-.631,1.081-1.262,2.16-1.928,3.218l-.286.46a11.29,11.29,0,0,0,3.372.505A11.149,11.149,0,0,0,31.5,40.07ZM29.684,17.754l.057.448c.16,1.241.276,2.494.39,3.735.046.494.093.978.126,1.472a.477.477,0,0,0,.757.357q.585-.428,1.205-.857c1.032-.7,2.053-1.4,3.108-2.08l.39-.241A11.28,11.28,0,0,0,29.684,17.754Zm8.752,15.183c-1.251-.08-2.49-.2-3.741-.31-.54-.046-1.067-.1-1.606-.161a.467.467,0,0,0-.493.631c.2.517.378,1.035.563,1.571.4,1.172.815,2.356,1.192,3.551l.126.414a11.5,11.5,0,0,0,4.359-5.667Zm-.608-9.793-.31.334c-.857.92-1.743,1.8-2.627,2.69-.563.571-1.171,1.127-1.755,1.689.78.2,1.561.4,2.34.631,1.205.344,2.4.678,3.591,1.068l.428.143c.011-.184.011-.38.011-.571a11.365,11.365,0,0,0-1.673-5.984Zm0,0-.31.334c-.857.92-1.743,1.8-2.627,2.69-.563.571-1.171,1.127-1.755,1.689.78.2,1.561.4,2.34.631,1.205.344,2.4.678,3.591,1.068l.428.143c.011-.184.011-.38.011-.571a11.365,11.365,0,0,0-1.673-5.984Zm.608,9.793c-1.251-.08-2.49-.2-3.741-.31-.54-.046-1.067-.1-1.606-.161a.467.467,0,0,0-.493.631c.2.517.378,1.035.563,1.571.4,1.172.815,2.356,1.192,3.551l.126.414a11.5,11.5,0,0,0,4.359-5.667ZM29.684,17.754l.057.448c.16,1.241.276,2.494.39,3.735.046.494.093.978.126,1.472a.477.477,0,0,0,.757.357q.585-.428,1.205-.857c1.032-.7,2.053-1.4,3.108-2.08l.39-.241A11.28,11.28,0,0,0,29.684,17.754Zm1.553,21.884c-.665-1.058-1.285-2.149-1.9-3.23-.276-.471-.54-.942-.792-1.428a.475.475,0,0,0-.838,0q-.4.741-.825,1.448c-.631,1.081-1.262,2.16-1.928,3.218l-.286.46a11.29,11.29,0,0,0,3.372.505A11.149,11.149,0,0,0,31.5,40.07Zm-8.054-7.332c-.54.07-1.067.143-1.606.207-1.251.143-2.479.3-3.728.414l-.62.057a11.552,11.552,0,0,0,4.45,5.7l.16-.484c.39-1.2.8-2.367,1.228-3.551q.293-.857.62-1.713a.465.465,0,0,0-.5-.633Zm-.643-5.241c-.39-.357-.768-.714-1.142-1.092-.9-.885-1.778-1.759-2.65-2.667l-.367-.38a11.4,11.4,0,0,0-1.813,6.2c0,.218.011.428.011.631l.54-.184c1.182-.428,2.374-.794,3.557-1.184.563-.184,1.125-.344,1.686-.517a.471.471,0,0,0,.183-.8Zm.643,5.241c-.54.07-1.067.143-1.606.207-1.251.143-2.479.3-3.728.414l-.62.057a11.552,11.552,0,0,0,4.45,5.7l.16-.484c.39-1.2.8-2.367,1.228-3.551q.293-.857.62-1.713a.465.465,0,0,0-.5-.633Zm8.054,7.332c-.665-1.058-1.285-2.149-1.9-3.23-.276-.471-.54-.942-.792-1.428a.475.475,0,0,0-.838,0q-.4.741-.825,1.448c-.631,1.081-1.262,2.16-1.928,3.218l-.286.46a11.29,11.29,0,0,0,3.372.505A11.149,11.149,0,0,0,31.5,40.07ZM29.684,17.754l.057.448c.16,1.241.276,2.494.39,3.735.046.494.093.978.126,1.472a.477.477,0,0,0,.757.357q.585-.428,1.205-.857c1.032-.7,2.053-1.4,3.108-2.08l.39-.241A11.28,11.28,0,0,0,29.684,17.754Zm8.752,15.183c-1.251-.08-2.49-.2-3.741-.31-.54-.046-1.067-.1-1.606-.161a.467.467,0,0,0-.493.631c.2.517.378,1.035.563,1.571.4,1.172.815,2.356,1.192,3.551l.126.414a11.5,11.5,0,0,0,4.359-5.667Zm-.608-9.793-.31.334c-.857.92-1.743,1.8-2.627,2.69-.563.571-1.171,1.127-1.755,1.689.78.2,1.561.4,2.34.631,1.205.344,2.4.678,3.591,1.068l.428.143c.011-.184.011-.38.011-.571a11.365,11.365,0,0,0-1.673-5.984Zm0,0-.31.334c-.857.92-1.743,1.8-2.627,2.69-.563.571-1.171,1.127-1.755,1.689.78.2,1.561.4,2.34.631,1.205.344,2.4.678,3.591,1.068l.428.143c.011-.184.011-.38.011-.571a11.365,11.365,0,0,0-1.673-5.984ZM34.7,32.627c-.54-.046-1.067-.1-1.606-.161a.467.467,0,0,0-.493.631c.2.517.378,1.035.563,1.571.4,1.172.815,2.356,1.192,3.551l.126.414a11.5,11.5,0,0,0,4.359-5.667l-.4-.023C37.192,32.857,35.952,32.741,34.7,32.627Zm1.022-12.035a11.28,11.28,0,0,0-6.04-2.838l.057.448c.16,1.241.276,2.494.39,3.735.046.494.093.978.126,1.472a.477.477,0,0,0,.757.357q.585-.428,1.205-.857c1.032-.7,2.053-1.4,3.108-2.08ZM29.333,36.411c-.276-.471-.54-.942-.792-1.428a.475.475,0,0,0-.838,0q-.4.741-.825,1.448c-.631,1.081-1.262,2.16-1.928,3.218l-.286.46a11.289,11.289,0,0,0,3.372.505,11.148,11.148,0,0,0,3.465-.541l-.264-.437C30.572,38.581,29.953,37.489,29.333,36.411Zm-6.148-4.1c-.54.07-1.067.143-1.606.207-1.251.143-2.479.3-3.728.414l-.62.057a11.552,11.552,0,0,0,4.45,5.7l.16-.484c.39-1.2.8-2.367,1.228-3.551q.293-.857.62-1.713a.465.465,0,0,0-.505-.634ZM22.36,27.87a.471.471,0,0,0,.183-.8c-.39-.357-.768-.714-1.142-1.092-.9-.885-1.778-1.759-2.65-2.667l-.367-.38a11.4,11.4,0,0,0-1.813,6.2c0,.218.011.428.011.631l.54-.184c1.182-.428,2.374-.794,3.557-1.184.555-.184,1.118-.344,1.681-.518Zm30.607,5.257L48.583,13.839a2.906,2.906,0,0,0-1.561-1.972L29.287,3.293a2.81,2.81,0,0,0-2.5,0L9.051,11.867A2.9,2.9,0,0,0,7.49,13.833L3.107,33.127a2.9,2.9,0,0,0,.551,2.427l12.279,15.47a2.9,2.9,0,0,0,2.26,1.092H37.879a2.9,2.9,0,0,0,2.26-1.092l12.276-15.47a2.893,2.893,0,0,0,.551-2.427Zm-6.127.8a1.272,1.272,0,0,1-.964-.173A6.017,6.017,0,0,0,44.121,33a8.443,8.443,0,0,0-.905-.2,1.419,1.419,0,0,0-.987.16,1.552,1.552,0,0,1-.975.143H41.22a13.863,13.863,0,0,1-6.024,7.8v.011a1.7,1.7,0,0,1,.1.978,1.391,1.391,0,0,0,.07,1c.126.277.264.564.413.828a5.894,5.894,0,0,0,1.158,1.529,1.254,1.254,0,0,1-1.688,1.856,1.207,1.207,0,0,1-.4-.9,6.251,6.251,0,0,0-.4-1.873,9.027,9.027,0,0,0-.356-.857,1.446,1.446,0,0,0-.714-.7,1.651,1.651,0,0,1-.643-.678,13.564,13.564,0,0,1-4.7.828,13.754,13.754,0,0,1-4.637-.8,1.473,1.473,0,0,1-.618.656,1.408,1.408,0,0,0-.714.7,7.928,7.928,0,0,0-.367.857,5.937,5.937,0,0,0-.4,1.873,1.251,1.251,0,1,1-2.087-.965,6.531,6.531,0,0,0,1.171-1.518c.143-.277.286-.551.413-.838a1.448,1.448,0,0,0,.08-1,1.571,1.571,0,0,1,.093-.908,13.865,13.865,0,0,1-6.091-7.77,1.4,1.4,0,0,1-.815-.127,1.4,1.4,0,0,0-.987-.143,7.965,7.965,0,0,0-.905.23,6.222,6.222,0,0,0-1.732.8A1.256,1.256,0,0,1,8.99,31.928a1.275,1.275,0,0,1,.964-.218,5.6,5.6,0,0,0,1.9.011,6.2,6.2,0,0,0,.918-.173,1.348,1.348,0,0,0,.838-.54,1.586,1.586,0,0,1,.722-.448c-.046-.471-.07-.954-.07-1.436a13.707,13.707,0,0,1,2.49-7.907,1.493,1.493,0,0,1-.483-.781,1.436,1.436,0,0,0-.505-.857,8.215,8.215,0,0,0-.735-.564,6.629,6.629,0,0,0-1.713-.857,1.242,1.242,0,0,1-.857-1.541,1.259,1.259,0,0,1,1.548-.857,1.285,1.285,0,0,1,.757.621,5.908,5.908,0,0,0,1.182,1.5,7,7,0,0,0,.7.61,1.371,1.371,0,0,0,.941.321,1.655,1.655,0,0,1,.918.357l.011.011a13.538,13.538,0,0,1,8.157-3.771,1.658,1.658,0,0,1,.3-.931,1.379,1.379,0,0,0,.356-.931,8.626,8.626,0,0,0-.023-.942,6.425,6.425,0,0,0-.428-1.856,1.249,1.249,0,1,1,2.295-.988,1.285,1.285,0,0,1,0,.988,6.425,6.425,0,0,0-.428,1.856,8.617,8.617,0,0,0-.023.942,1.379,1.379,0,0,0,.356.931,1.649,1.649,0,0,1,.3.931,13.581,13.581,0,0,1,8.328,3.931,1.653,1.653,0,0,1,.918-.367,1.371,1.371,0,0,0,.941-.321c.24-.2.47-.4.7-.621a6.167,6.167,0,0,0,1.171-1.5,1.246,1.246,0,1,1,2.215,1.142,1.207,1.207,0,0,1-.757.631,6.067,6.067,0,0,0-1.7.857,9.091,9.091,0,0,0-.735.571,1.436,1.436,0,0,0-.505.857,1.635,1.635,0,0,1-.515.838,13.664,13.664,0,0,1,2.36,7.7c0,.437-.023.874-.057,1.3h.011a1.6,1.6,0,0,1,.857.483,1.4,1.4,0,0,0,.85.505,8.423,8.423,0,0,0,.918.143,6,6,0,0,0,1.916-.07,1.246,1.246,0,1,1,.543,2.427ZM37.523,23.484c-.857.92-1.743,1.8-2.627,2.69-.563.571-1.171,1.127-1.755,1.689.78.2,1.561.4,2.34.631,1.205.344,2.4.678,3.591,1.068l.428.143c.011-.184.011-.38.011-.571a11.36,11.36,0,0,0-1.675-5.977ZM34.7,32.627c-.54-.046-1.067-.1-1.606-.161a.467.467,0,0,0-.493.631c.2.517.378,1.035.563,1.571.4,1.172.815,2.356,1.192,3.551l.126.414a11.5,11.5,0,0,0,4.359-5.667l-.4-.023C37.192,32.857,35.952,32.741,34.7,32.627Zm1.022-12.035a11.28,11.28,0,0,0-6.04-2.838l.057.448c.16,1.241.276,2.494.39,3.735.046.494.093.978.126,1.472a.477.477,0,0,0,.757.357q.585-.428,1.205-.857c1.032-.7,2.053-1.4,3.108-2.08ZM29.333,36.411c-.276-.471-.54-.942-.792-1.428a.475.475,0,0,0-.838,0q-.4.741-.825,1.448c-.631,1.081-1.262,2.16-1.928,3.218l-.286.46a11.289,11.289,0,0,0,3.372.505,11.148,11.148,0,0,0,3.465-.541l-.264-.437C30.572,38.581,29.953,37.489,29.333,36.411Zm-3.4-14.474c.114-1.242.23-2.494.39-3.735l.057-.448a11.224,11.224,0,0,0-5.827,2.666l.356.218c1.068.667,2.1,1.368,3.133,2.069.6.38,1.158.8,1.721,1.208C25.811,23.258,25.869,22.591,25.936,21.937ZM23.184,32.3c-.54.07-1.067.143-1.606.207-1.251.143-2.479.3-3.728.414l-.62.057a11.552,11.552,0,0,0,4.45,5.7l.16-.484c.39-1.2.8-2.367,1.228-3.551q.293-.857.62-1.713a.465.465,0,0,0-.5-.631Zm-.825-4.438a.471.471,0,0,0,.183-.8c-.39-.357-.768-.714-1.142-1.092-.9-.885-1.778-1.759-2.65-2.667l-.367-.38a11.4,11.4,0,0,0-1.813,6.2c0,.218.011.428.011.631l.54-.184c1.182-.428,2.374-.794,3.557-1.184.557-.181,1.119-.341,1.682-.515Zm.183-.8c-.39-.357-.768-.714-1.142-1.092-.9-.885-1.778-1.759-2.65-2.667l-.367-.38a11.4,11.4,0,0,0-1.813,6.2c0,.218.011.428.011.631l.54-.184c1.182-.428,2.374-.794,3.557-1.184.563-.184,1.125-.344,1.686-.517a.471.471,0,0,0,.183-.8Zm.643,5.241c-.54.07-1.067.143-1.606.207-1.251.143-2.479.3-3.728.414l-.62.057a11.552,11.552,0,0,0,4.45,5.7l.16-.484c.39-1.2.8-2.367,1.228-3.551q.293-.857.62-1.713a.465.465,0,0,0-.5-.631Zm8.054,7.332c-.665-1.058-1.285-2.149-1.9-3.23-.276-.471-.54-.942-.792-1.428a.475.475,0,0,0-.838,0q-.4.741-.825,1.448c-.631,1.081-1.262,2.16-1.928,3.218l-.286.46a11.29,11.29,0,0,0,3.372.505,11.149,11.149,0,0,0,3.465-.541ZM29.684,17.754l.057.448c.16,1.241.276,2.494.39,3.735.046.494.093.978.126,1.472a.477.477,0,0,0,.757.357q.585-.428,1.205-.857c1.032-.7,2.053-1.4,3.108-2.08l.39-.241A11.28,11.28,0,0,0,29.684,17.754Zm8.752,15.183c-1.251-.08-2.49-.2-3.741-.31-.54-.046-1.067-.1-1.606-.161a.467.467,0,0,0-.493.631c.2.517.378,1.035.563,1.571.4,1.172.815,2.356,1.192,3.551l.126.414a11.5,11.5,0,0,0,4.359-5.667Zm-.608-9.793-.31.334c-.857.92-1.743,1.8-2.627,2.69-.563.571-1.171,1.127-1.755,1.689.78.2,1.561.4,2.34.631,1.205.344,2.4.678,3.591,1.068l.428.143c.011-.184.011-.38.011-.571a11.365,11.365,0,0,0-1.673-5.984Zm0,0-.31.334c-.857.92-1.743,1.8-2.627,2.69-.563.571-1.171,1.127-1.755,1.689.78.2,1.561.4,2.34.631,1.205.344,2.4.678,3.591,1.068l.428.143c.011-.184.011-.38.011-.571a11.365,11.365,0,0,0-1.673-5.984Zm.608,9.793c-1.251-.08-2.49-.2-3.741-.31-.54-.046-1.067-.1-1.606-.161a.467.467,0,0,0-.493.631c.2.517.378,1.035.563,1.571.4,1.172.815,2.356,1.192,3.551l.126.414a11.5,11.5,0,0,0,4.359-5.667ZM29.684,17.754l.057.448c.16,1.241.276,2.494.39,3.735.046.494.093.978.126,1.472a.477.477,0,0,0,.757.357q.585-.428,1.205-.857c1.032-.7,2.053-1.4,3.108-2.08l.39-.241A11.28,11.28,0,0,0,29.684,17.754Zm1.553,21.884c-.665-1.058-1.285-2.149-1.9-3.23-.276-.471-.54-.942-.792-1.428a.475.475,0,0,0-.838,0q-.4.741-.825,1.448c-.631,1.081-1.262,2.16-1.928,3.218l-.286.46a11.29,11.29,0,0,0,3.372.505A11.149,11.149,0,0,0,31.5,40.07Zm-8.054-7.332c-.54.07-1.067.143-1.606.207-1.251.143-2.479.3-3.728.414l-.62.057a11.552,11.552,0,0,0,4.45,5.7l.16-.484c.39-1.2.8-2.367,1.228-3.551q.293-.857.62-1.713a.465.465,0,0,0-.5-.633Zm-.643-5.241c-.39-.357-.768-.714-1.142-1.092-.9-.885-1.778-1.759-2.65-2.667l-.367-.38a11.4,11.4,0,0,0-1.813,6.2c0,.218.011.428.011.631l.54-.184c1.182-.428,2.374-.794,3.557-1.184.563-.184,1.125-.344,1.686-.517a.471.471,0,0,0,.183-.8Zm.643,5.241c-.54.07-1.067.143-1.606.207-1.251.143-2.479.3-3.728.414l-.62.057a11.552,11.552,0,0,0,4.45,5.7l.16-.484c.39-1.2.8-2.367,1.228-3.551q.293-.857.62-1.713a.465.465,0,0,0-.5-.633Zm8.054,7.332c-.665-1.058-1.285-2.149-1.9-3.23-.276-.471-.54-.942-.792-1.428a.475.475,0,0,0-.838,0q-.4.741-.825,1.448c-.631,1.081-1.262,2.16-1.928,3.218l-.286.46a11.29,11.29,0,0,0,3.372.505A11.149,11.149,0,0,0,31.5,40.07ZM29.684,17.754l.057.448c.16,1.241.276,2.494.39,3.735.046.494.093.978.126,1.472a.477.477,0,0,0,.757.357q.585-.428,1.205-.857c1.032-.7,2.053-1.4,3.108-2.08l.39-.241A11.28,11.28,0,0,0,29.684,17.754Zm8.752,15.183c-1.251-.08-2.49-.2-3.741-.31-.54-.046-1.067-.1-1.606-.161a.467.467,0,0,0-.493.631c.2.517.378,1.035.563,1.571.4,1.172.815,2.356,1.192,3.551l.126.414a11.5,11.5,0,0,0,4.359-5.667Zm-.608-9.793-.31.334c-.857.92-1.743,1.8-2.627,2.69-.563.571-1.171,1.127-1.755,1.689.78.2,1.561.4,2.34.631,1.205.344,2.4.678,3.591,1.068l.428.143c.011-.184.011-.38.011-.571a11.365,11.365,0,0,0-1.673-5.984Zm0,0-.31.334c-.857.92-1.743,1.8-2.627,2.69-.563.571-1.171,1.127-1.755,1.689.78.2,1.561.4,2.34.631,1.205.344,2.4.678,3.591,1.068l.428.143c.011-.184.011-.38.011-.571a11.365,11.365,0,0,0-1.673-5.984Zm.608,9.793c-1.251-.08-2.49-.2-3.741-.31-.54-.046-1.067-.1-1.606-.161a.467.467,0,0,0-.493.631c.2.517.378,1.035.563,1.571.4,1.172.815,2.356,1.192,3.551l.126.414a11.5,11.5,0,0,0,4.359-5.667ZM29.684,17.754l.057.448c.16,1.241.276,2.494.39,3.735.046.494.093.978.126,1.472a.477.477,0,0,0,.757.357q.585-.428,1.205-.857c1.032-.7,2.053-1.4,3.108-2.08l.39-.241A11.28,11.28,0,0,0,29.684,17.754Zm1.553,21.884c-.665-1.058-1.285-2.149-1.9-3.23-.276-.471-.54-.942-.792-1.428a.475.475,0,0,0-.838,0q-.4.741-.825,1.448c-.631,1.081-1.262,2.16-1.928,3.218l-.286.46a11.29,11.29,0,0,0,3.372.505A11.149,11.149,0,0,0,31.5,40.07Zm-8.054-7.332c-.54.07-1.067.143-1.606.207-1.251.143-2.479.3-3.728.414l-.62.057a11.552,11.552,0,0,0,4.45,5.7l.16-.484c.39-1.2.8-2.367,1.228-3.551q.293-.857.62-1.713a.465.465,0,0,0-.5-.633Zm8.054,7.332c-.665-1.058-1.285-2.149-1.9-3.23-.276-.471-.54-.942-.792-1.428a.475.475,0,0,0-.838,0q-.4.741-.825,1.448c-.631,1.081-1.262,2.16-1.928,3.218l-.286.46a11.29,11.29,0,0,0,3.372.505A11.149,11.149,0,0,0,31.5,40.07ZM29.684,17.754l.057.448c.16,1.241.276,2.494.39,3.735.046.494.093.978.126,1.472a.477.477,0,0,0,.757.357q.585-.428,1.205-.857c1.032-.7,2.053-1.4,3.108-2.08l.39-.241A11.28,11.28,0,0,0,29.684,17.754Zm8.752,15.183c-1.251-.08-2.49-.2-3.741-.31-.54-.046-1.067-.1-1.606-.161a.467.467,0,0,0-.493.631c.2.517.378,1.035.563,1.571.4,1.172.815,2.356,1.192,3.551l.126.414a11.5,11.5,0,0,0,4.359-5.667Zm-.608-9.793-.31.334c-.857.92-1.743,1.8-2.627,2.69-.563.571-1.171,1.127-1.755,1.689.78.2,1.561.4,2.34.631,1.205.344,2.4.678,3.591,1.068l.428.143c.011-.184.011-.38.011-.571a11.365,11.365,0,0,0-1.673-5.984Zm0,0-.31.334c-.857.92-1.743,1.8-2.627,2.69-.563.571-1.171,1.127-1.755,1.689.78.2,1.561.4,2.34.631,1.205.344,2.4.678,3.591,1.068l.428.143c.011-.184.011-.38.011-.571a11.365,11.365,0,0,0-1.673-5.984Zm.608,9.793c-1.251-.08-2.49-.2-3.741-.31-.54-.046-1.067-.1-1.606-.161a.467.467,0,0,0-.493.631c.2.517.378,1.035.563,1.571.4,1.172.815,2.356,1.192,3.551l.126.414a11.5,11.5,0,0,0,4.359-5.667ZM29.684,17.754l.057.448c.16,1.241.276,2.494.39,3.735.046.494.093.978.126,1.472a.477.477,0,0,0,.757.357q.585-.428,1.205-.857c1.032-.7,2.053-1.4,3.108-2.08l.39-.241A11.28,11.28,0,0,0,29.684,17.754Zm1.553,21.884c-.665-1.058-1.285-2.149-1.9-3.23-.276-.471-.54-.942-.792-1.428a.475.475,0,0,0-.838,0q-.4.741-.825,1.448c-.631,1.081-1.262,2.16-1.928,3.218l-.286.46a11.29,11.29,0,0,0,3.372.505A11.149,11.149,0,0,0,31.5,40.07Zm0,0c-.665-1.058-1.285-2.149-1.9-3.23-.276-.471-.54-.942-.792-1.428a.475.475,0,0,0-.838,0q-.4.741-.825,1.448c-.631,1.081-1.262,2.16-1.928,3.218l-.286.46a11.29,11.29,0,0,0,3.372.505A11.149,11.149,0,0,0,31.5,40.07ZM29.684,17.754l.057.448c.16,1.241.276,2.494.39,3.735.046.494.093.978.126,1.472a.477.477,0,0,0,.757.357q.585-.428,1.205-.857c1.032-.7,2.053-1.4,3.108-2.08l.39-.241A11.28,11.28,0,0,0,29.684,17.754Zm8.752,15.183c-1.251-.08-2.49-.2-3.741-.31-.54-.046-1.067-.1-1.606-.161a.467.467,0,0,0-.493.631c.2.517.378,1.035.563,1.571.4,1.172.815,2.356,1.192,3.551l.126.414a11.5,11.5,0,0,0,4.359-5.667Zm-.608-9.793-.31.334c-.857.92-1.743,1.8-2.627,2.69-.563.571-1.171,1.127-1.755,1.689.78.2,1.561.4,2.34.631,1.205.344,2.4.678,3.591,1.068l.428.143c.011-.184.011-.38.011-.571a11.365,11.365,0,0,0-1.673-5.984Zm0,0-.31.334c-.857.92-1.743,1.8-2.627,2.69-.563.571-1.171,1.127-1.755,1.689.78.2,1.561.4,2.34.631,1.205.344,2.4.678,3.591,1.068l.428.143c.011-.184.011-.38.011-.571a11.365,11.365,0,0,0-1.673-5.984Zm.608,9.793c-1.251-.08-2.49-.2-3.741-.31-.54-.046-1.067-.1-1.606-.161a.467.467,0,0,0-.493.631c.2.517.378,1.035.563,1.571.4,1.172.815,2.356,1.192,3.551l.126.414a11.5,11.5,0,0,0,4.359-5.667ZM29.684,17.754l.057.448c.16,1.241.276,2.494.39,3.735.046.494.093.978.126,1.472a.477.477,0,0,0,.757.357q.585-.428,1.205-.857c1.032-.7,2.053-1.4,3.108-2.08l.39-.241A11.28,11.28,0,0,0,29.684,17.754Zm1.553,21.884c-.665-1.058-1.285-2.149-1.9-3.23-.276-.471-.54-.942-.792-1.428a.475.475,0,0,0-.838,0q-.4.741-.825,1.448c-.631,1.081-1.262,2.16-1.928,3.218l-.286.46a11.29,11.29,0,0,0,3.372.505A11.149,11.149,0,0,0,31.5,40.07ZM29.684,17.754l.057.448c.16,1.241.276,2.494.39,3.735.046.494.093.978.126,1.472a.477.477,0,0,0,.757.357q.585-.428,1.205-.857c1.032-.7,2.053-1.4,3.108-2.08l.39-.241A11.28,11.28,0,0,0,29.684,17.754Zm8.752,15.183c-1.251-.08-2.49-.2-3.741-.31-.54-.046-1.067-.1-1.606-.161a.467.467,0,0,0-.493.631c.2.517.378,1.035.563,1.571.4,1.172.815,2.356,1.192,3.551l.126.414a11.5,11.5,0,0,0,4.359-5.667Zm-.608-9.793-.31.334c-.857.92-1.743,1.8-2.627,2.69-.563.571-1.171,1.127-1.755,1.689.78.2,1.561.4,2.34.631,1.205.344,2.4.678,3.591,1.068l.428.143c.011-.184.011-.38.011-.571a11.365,11.365,0,0,0-1.673-5.984Zm0,0-.31.334c-.857.92-1.743,1.8-2.627,2.69-.563.571-1.171,1.127-1.755,1.689.78.2,1.561.4,2.34.631,1.205.344,2.4.678,3.591,1.068l.428.143c.011-.184.011-.38.011-.571a11.365,11.365,0,0,0-1.673-5.984Zm.608,9.793c-1.251-.08-2.49-.2-3.741-.31-.54-.046-1.067-.1-1.606-.161a.467.467,0,0,0-.493.631c.2.517.378,1.035.563,1.571.4,1.172.815,2.356,1.192,3.551l.126.414a11.5,11.5,0,0,0,4.359-5.667ZM29.684,17.754l.057.448c.16,1.241.276,2.494.39,3.735.046.494.093.978.126,1.472a.477.477,0,0,0,.757.357q.585-.428,1.205-.857c1.032-.7,2.053-1.4,3.108-2.08l.39-.241A11.28,11.28,0,0,0,29.684,17.754Zm0,0,.057.448c.16,1.241.276,2.494.39,3.735.046.494.093.978.126,1.472a.477.477,0,0,0,.757.357q.585-.428,1.205-.857c1.032-.7,2.053-1.4,3.108-2.08l.39-.241A11.28,11.28,0,0,0,29.684,17.754Zm8.139,5.39-.31.334c-.857.92-1.743,1.8-2.627,2.69-.563.571-1.171,1.127-1.755,1.689.78.2,1.561.4,2.34.631,1.205.344,2.4.678,3.591,1.068l.428.143c.011-.184.011-.38.011-.571a11.365,11.365,0,0,0-1.668-5.984Zm0,0-.31.334c-.857.92-1.743,1.8-2.627,2.69-.563.571-1.171,1.127-1.755,1.689.78.2,1.561.4,2.34.631,1.205.344,2.4.678,3.591,1.068l.428.143c.011-.184.011-.38.011-.571a11.365,11.365,0,0,0-1.668-5.984Zm-8.139-5.39.057.448c.16,1.241.276,2.494.39,3.735.046.494.093.978.126,1.472a.477.477,0,0,0,.757.357q.585-.428,1.205-.857c1.032-.7,2.053-1.4,3.108-2.08l.39-.241A11.28,11.28,0,0,0,29.684,17.754Zm0,0,.057.448c.16,1.241.276,2.494.39,3.735.046.494.093.978.126,1.472a.477.477,0,0,0,.757.357q.585-.428,1.205-.857c1.032-.7,2.053-1.4,3.108-2.08l.39-.241A11.28,11.28,0,0,0,29.684,17.754Zm8.139,5.39-.31.334c-.857.92-1.743,1.8-2.627,2.69-.563.571-1.171,1.127-1.755,1.689.78.2,1.561.4,2.34.631,1.205.344,2.4.678,3.591,1.068l.428.143c.011-.184.011-.38.011-.571a11.365,11.365,0,0,0-1.668-5.984Zm0,0-.31.334c-.857.92-1.743,1.8-2.627,2.69-.563.571-1.171,1.127-1.755,1.689.78.2,1.561.4,2.34.631,1.205.344,2.4.678,3.591,1.068l.428.143c.011-.184.011-.38.011-.571a11.365,11.365,0,0,0-1.668-5.984Zm-8.139-5.39.057.448c.16,1.241.276,2.494.39,3.735.046.494.093.978.126,1.472a.477.477,0,0,0,.757.357q.585-.428,1.205-.857c1.032-.7,2.053-1.4,3.108-2.08l.39-.241A11.28,11.28,0,0,0,29.684,17.754Zm0,0,.057.448c.16,1.241.276,2.494.39,3.735.046.494.093.978.126,1.472a.477.477,0,0,0,.757.357q.585-.428,1.205-.857c1.032-.7,2.053-1.4,3.108-2.08l.39-.241A11.28,11.28,0,0,0,29.684,17.754Zm0,0,.057.448c.16,1.241.276,2.494.39,3.735.046.494.093.978.126,1.472a.477.477,0,0,0,.757.357q.585-.428,1.205-.857c1.032-.7,2.053-1.4,3.108-2.08l.39-.241A11.28,11.28,0,0,0,29.684,17.754Z" transform="translate(-3.037 -3)" fill="#0277bd"/>
      <path id="Path_5216" data-name="Path 5216" d="M13.985,28.665a1.4,1.4,0,0,1-.815-.127,1.4,1.4,0,0,0-.987-.143,7.963,7.963,0,0,0-.905.23,6.223,6.223,0,0,0-1.732.8A1.248,1.248,0,1,1,8.1,27.394a1.275,1.275,0,0,1,.964-.218,5.6,5.6,0,0,0,1.9.011,6.207,6.207,0,0,0,.918-.173,1.348,1.348,0,0,0,.838-.54,1.586,1.586,0,0,1,.722-.448,14.585,14.585,0,0,0,.537,2.639Z" transform="translate(-2.144 1.524)" fill="none"/>
      <path id="Path_5217" data-name="Path 5217" d="M20.814,35.872a1.473,1.473,0,0,1-.62.657,1.408,1.408,0,0,0-.714.7,7.927,7.927,0,0,0-.367.857,5.937,5.937,0,0,0-.4,1.873,1.251,1.251,0,1,1-2.087-.965,6.531,6.531,0,0,0,1.171-1.518c.143-.277.286-.551.413-.838a1.448,1.448,0,0,0,.08-1,1.571,1.571,0,0,1,.093-.908,13.531,13.531,0,0,0,2.434,1.141Z" transform="translate(-0.449 3.238)" fill="none"/>
      <path id="Path_5218" data-name="Path 5218" d="M32.142,40.791a1.261,1.261,0,0,1-1.768.08,1.207,1.207,0,0,1-.4-.9,6.249,6.249,0,0,0-.4-1.873,9.029,9.029,0,0,0-.356-.857,1.446,1.446,0,0,0-.714-.7,1.651,1.651,0,0,1-.643-.678,13.5,13.5,0,0,0,2.456-1.184v.011a1.7,1.7,0,0,1,.1.978,1.392,1.392,0,0,0,.07,1c.126.277.264.564.413.828a5.9,5.9,0,0,0,1.158,1.529A1.259,1.259,0,0,1,32.142,40.791Z" transform="translate(1.84 3.228)" fill="none"/>
      <path id="Path_5219" data-name="Path 5219" d="M40.569,29.42a1.272,1.272,0,0,1-.964-.173,6.017,6.017,0,0,0-1.755-.758,8.44,8.44,0,0,0-.905-.2,1.419,1.419,0,0,0-.987.16,1.552,1.552,0,0,1-.975.143h-.034a13.817,13.817,0,0,0,.528-2.677h.011a1.6,1.6,0,0,1,.857.483,1.4,1.4,0,0,0,.85.505,8.424,8.424,0,0,0,.918.143,6,6,0,0,0,1.916-.07,1.248,1.248,0,0,1,.538,2.437Z" transform="translate(3.234 1.506)" fill="none"/>
    </g>
  </g>
</svg>
