<svg xmlns="http://www.w3.org/2000/svg" width="34.783" height="32.973" viewBox="0 0 34.783 32.973">
  <path id="Snowflake" d="M32.039,14.446,28.125,16.7l3.914,2.236a2.059,2.059,0,0,1-2.06,3.565l-7.013-4.04a2.063,2.063,0,0,1-1.029-1.842,2.015,2.015,0,0,1,.074-.475,2.063,2.063,0,0,1,.951-1.233l7.013-4.026a2.065,2.065,0,0,1,2.823.758,2.039,2.039,0,0,1-.758,2.8Zm-3.7,10.932-7.01-4.033a2.072,2.072,0,0,0-3.1,1.778v8.056a2.065,2.065,0,0,0,4.128,0V26.663l3.923,2.255a2.059,2.059,0,1,0,2.063-3.565Zm-8.08-7.88-2.923,2.887a.58.58,0,0,1-.366.154h-.858a.6.6,0,0,1-.366-.154l-2.906-2.9a.582.582,0,0,1-.152-.361v-.856a.594.594,0,0,1,.152-.364l2.906-2.9a.594.594,0,0,1,.366-.152h.858a.582.582,0,0,1,.366.152l2.913,2.9a.592.592,0,0,1,.15.364v.856a.58.58,0,0,1-.15.361Zm-2.329-.8a.615.615,0,0,0-.164-.371l-.844-.834a.6.6,0,0,0-.366-.152h-.031a.585.585,0,0,0-.364.152l-.844.834a.6.6,0,0,0-.15.368v.031a.573.573,0,0,0,.15.361l.848.832a.589.589,0,0,0,.364.152h.031a.6.6,0,0,0,.366-.152l.844-.839a.592.592,0,0,0,.154-.361ZM4.739,8.025l7.013,4.021a2.075,2.075,0,0,0,3.106-1.78V2.217a2.065,2.065,0,0,0-4.128,0V6.732L6.8,4.474A2.059,2.059,0,0,0,4.739,8.039Zm15.39,4.3a2.053,2.053,0,0,0,1.188-.269l7.01-4.04a2.059,2.059,0,0,0-2.063-3.565L22.341,6.725V2.21a2.065,2.065,0,0,0-4.128,0v8.056a2.058,2.058,0,0,0,1.915,2.056ZM12.95,21.076a2.039,2.039,0,0,0-1.188.269L4.739,25.368A2.059,2.059,0,1,0,6.8,28.933l3.928-2.255v4.515a2.065,2.065,0,0,0,4.128,0v-8.07a2.056,2.056,0,0,0-1.908-2.046Zm-1.9-3.771a2.046,2.046,0,0,0-.951-2.376L3.092,10.891a2.065,2.065,0,0,0-2.811.753,2.041,2.041,0,0,0,.756,2.8L4.951,16.7,1.037,18.937A2.057,2.057,0,1,0,3.092,22.5l7.006-4.04a2.041,2.041,0,0,0,.948-1.157ZM33.185,3.945h-.316v.387h.314c.145,0,.238-.067.238-.19s-.086-.2-.238-.2Zm-.7-.356H33.2c.385,0,.642.212.642.539a.513.513,0,0,1-.257.452l.278.4v.081h-.4l-.278-.38h-.314v.38h-.385Zm1.972.765a1.3,1.3,0,0,0-1.326-1.385,1.281,1.281,0,0,0-1.309,1.385,1.321,1.321,0,1,0,2.638,0Zm.328,0a1.611,1.611,0,0,1-1.663,1.7,1.594,1.594,0,0,1-1.637-1.7,1.65,1.65,0,1,1,3.3,0Z" transform="translate(-0.004 -0.215)" fill="#29b5e8" fill-rule="evenodd"/>
</svg>
